<?xml version="1.0" encoding="UTF-8" standalone="no"?>
<!-- Created with Inkscape (http://www.inkscape.org/) -->

<svg
   version="1.1"
   id="svg2"
   width="566.93335"
   height="566.93335"
   viewBox="0 0 566.93335 566.93335"
   sodipodi:docname="59407.eps"
   xmlns:inkscape="http://www.inkscape.org/namespaces/inkscape"
   xmlns:sodipodi="http://sodipodi.sourceforge.net/DTD/sodipodi-0.dtd"
   xmlns="http://www.w3.org/2000/svg"
   xmlns:svg="http://www.w3.org/2000/svg">
  <defs
     id="defs6">
    <clipPath
       clipPathUnits="userSpaceOnUse"
       id="clipPath176">
      <path
         d="m 1704.41,1067.78 c 0,-160.108 -93.74,-247.772 -209.37,-247.772 -115.64,0 -209.39,87.664 -209.39,247.772 0,160.11 107.8,339.46 209.39,339.46 95.38,0 209.37,-179.35 209.37,-339.46"
         id="path174" />
    </clipPath>
    <clipPath
       clipPathUnits="userSpaceOnUse"
       id="clipPath340">
      <path
         d="m 2857.97,1052.41 c 0,-160.101 -93.75,-247.769 -209.38,-247.769 -115.64,0 -209.38,87.668 -209.38,247.769 0,160.11 107.79,339.46 209.38,339.46 95.39,0 209.38,-179.35 209.38,-339.46"
         id="path338" />
    </clipPath>
  </defs>
  <sodipodi:namedview
     id="namedview4"
     pagecolor="#ffffff"
     bordercolor="#000000"
     borderopacity="0.25"
     inkscape:showpageshadow="2"
     inkscape:pageopacity="0.0"
     inkscape:pagecheckerboard="0"
     inkscape:deskcolor="#d1d1d1" />
  <g
     id="g8"
     inkscape:groupmode="layer"
     inkscape:label="ink_ext_XXXXXX"
     transform="matrix(1.3333333,0,0,-1.3333333,0,566.93333)">
    <g
       id="g10"
       transform="scale(0.1)">
      <path
         d="M 0,0 H 4251.97 V 4251.97 H 0 Z"
         style="fill:#ffffff;fill-opacity:1;fill-rule:nonzero;stroke:none"
         id="path12" />
      <path
         d="m 3680.21,2232.28 c 0,-863.62 -700.09,-1563.71 -1563.71,-1563.71 -863.61,0 -1563.707,700.09 -1563.707,1563.71 0,863.61 700.097,1563.71 1563.707,1563.71 863.62,0 1563.71,-700.1 1563.71,-1563.71"
         style="fill:#64cdeb;fill-opacity:1;fill-rule:nonzero;stroke:none"
         id="path14" />
      <path
         d="m 3661.95,709.059 c 289.85,457.091 -547.85,652.801 -1519.8,652.801 -930.6,0 -1878.185,-222.19 -1540.478,-652.801 273.836,-349.18 2848.478,-334 3060.278,0"
         style="fill:#96d439;fill-opacity:1;fill-rule:nonzero;stroke:none"
         id="path16" />
      <path
         d="m 1548.16,3054.91 c -4.56,50.22 -37.8,92.31 -83.57,110.31 -12.79,61.63 -68.32,108.01 -134.87,108.01 -22.42,0 -43.58,-5.29 -62.27,-14.63 -24.28,38.41 -67.59,64 -117.01,64 -48.7,0 -91.46,-24.85 -115.92,-62.32 -21.64,13.92 -47.5,22.03 -75.29,22.03 -71.601,0 -130.417,-53.69 -137.007,-122.31 -46.301,-17.24 -81.446,-56.69 -92.035,-105.09 h 817.972"
         style="fill:#ffffff;fill-opacity:1;fill-rule:nonzero;stroke:none"
         id="path18" />
      <path
         d="m 1374.29,2318.14 c -3.11,34.25 -25.78,62.96 -57,75.24 -8.73,42.04 -46.6,73.68 -92,73.68 -15.29,0 -29.72,-3.62 -42.47,-9.99 -16.57,26.2 -46.11,43.65 -79.82,43.65 -33.21,0 -62.38,-16.94 -79.06,-42.5 -14.77,9.49 -32.409,15.03 -51.362,15.03 -48.844,0 -88.957,-36.63 -93.453,-83.43 -31.582,-11.76 -55.551,-38.67 -62.777,-71.68 h 557.942"
         style="fill:#ffffff;fill-opacity:1;fill-rule:nonzero;stroke:none"
         id="path20" />
      <path
         d="m 3245,2237.17 c -3.11,34.25 -25.78,62.96 -57,75.24 -8.73,42.04 -46.6,73.68 -91.99,73.68 -15.3,0 -29.73,-3.62 -42.48,-9.99 -16.56,26.2 -46.1,43.66 -79.82,43.66 -33.21,0 -62.38,-16.96 -79.07,-42.51 -14.75,9.5 -32.39,15.03 -51.35,15.03 -48.84,0 -88.95,-36.62 -93.45,-83.43 -31.58,-11.76 -55.55,-38.67 -62.78,-71.68 H 3245"
         style="fill:#ffffff;fill-opacity:1;fill-rule:nonzero;stroke:none"
         id="path22" />
      <path
         d="m 3516.71,3166.53 c -3.83,42.13 -31.72,77.45 -70.13,92.55 -10.74,51.72 -57.33,90.64 -113.17,90.64 -18.82,0 -36.57,-4.44 -52.25,-12.28 -20.38,32.23 -56.72,53.7 -98.2,53.7 -40.85,0 -76.73,-20.85 -97.26,-52.29 -18.16,11.67 -39.86,18.49 -63.18,18.49 -60.08,0 -109.43,-45.06 -114.97,-102.64 -38.85,-14.47 -68.34,-47.56 -77.23,-88.17 h 686.39"
         style="fill:#ffffff;fill-opacity:1;fill-rule:nonzero;stroke:none"
         id="path24" />
      <path
         d="m 2506.17,2907.19 c -4.66,51.14 -38.5,94 -85.11,112.33 -13.04,62.77 -69.58,110 -137.35,110 -22.83,0 -44.37,-5.4 -63.41,-14.9 -24.72,39.11 -68.84,65.17 -119.17,65.17 -49.57,0 -93.13,-25.31 -118.04,-63.46 -22.03,14.17 -48.37,22.44 -76.67,22.44 -72.92,0 -132.81,-54.68 -139.52,-124.56 -47.15,-17.56 -82.94,-57.73 -93.73,-107.02 h 833"
         style="fill:#ffffff;fill-opacity:1;fill-rule:nonzero;stroke:none"
         id="path26" />
      <path
         d="m 966.402,1211.35 c 0,0 -98.664,229.16 66.838,385.11 0,0 -35.002,-117.76 22.28,-219.61 0,0 60.47,50.93 54.1,117.77 0,0 35.81,-128.9 3.19,-280.09 0,0 118.56,149.99 75.59,351.7 0,0 75.2,-39.39 41.78,-350.92 0,0 14.32,150.41 82.35,237.53 0,0 -29.84,-170.68 28.64,-238.72 0,0 39.39,76.4 29.84,182.62 0,0 51.32,-63.26 40.58,-177.82 0,0 14.33,201.69 72.8,286.44 0,0 -26.25,-224.4 15.53,-288.84 l -533.518,-5.17"
         style="fill:#96d439;fill-opacity:1;fill-rule:nonzero;stroke:none"
         id="path28" />
      <path
         d="m 1550.05,1218.1 c 0,0 -98.66,229.16 66.84,385.11 0,0 -35.01,-117.76 22.28,-219.61 0,0 60.47,50.92 54.1,117.76 0,0 35.81,-128.9 3.19,-280.08 0,0 118.56,149.99 75.59,351.7 0,0 75.2,-39.4 41.77,-350.92 0,0 14.32,150.4 82.36,237.53 0,0 -29.84,-170.68 28.64,-238.72 0,0 39.39,76.4 29.84,182.61 0,0 51.32,-63.25 40.58,-177.81 0,0 14.33,201.69 72.8,286.44 0,0 -26.25,-224.4 15.52,-288.84 l -533.51,-5.17"
         style="fill:#96d439;fill-opacity:1;fill-rule:nonzero;stroke:none"
         id="path30" />
      <path
         d="m 2177.55,1214.73 c 0,0 -98.65,229.15 66.84,385.11 0,0 -35,-117.76 22.29,-219.62 0,0 60.47,50.93 54.1,117.78 0,0 35.81,-128.91 3.18,-280.09 0,0 118.56,149.99 75.6,351.69 0,0 75.2,-39.39 41.77,-350.91 0,0 14.32,150.4 82.36,237.53 0,0 -29.85,-170.69 28.64,-238.72 0,0 39.39,76.4 29.84,182.61 0,0 51.32,-63.25 40.58,-177.82 0,0 14.32,201.7 72.8,286.45 0,0 -26.26,-224.4 15.52,-288.84 l -533.52,-5.17"
         style="fill:#96d439;fill-opacity:1;fill-rule:nonzero;stroke:none"
         id="path32" />
      <path
         d="m 2774.7,1218.1 c 0,0 -98.66,229.16 66.84,385.12 0,0 -35,-117.77 22.28,-219.62 0,0 60.47,50.92 54.11,117.77 0,0 35.8,-128.91 3.18,-280.09 0,0 118.56,149.99 75.59,351.7 0,0 75.2,-39.39 41.78,-350.91 0,0 14.32,150.39 82.35,237.52 0,0 -29.84,-170.68 28.64,-238.71 0,0 39.39,76.39 29.84,182.6 0,0 51.32,-63.25 40.59,-177.81 0,0 14.32,201.7 72.8,286.45 0,0 -26.26,-224.4 15.52,-288.85 l -533.52,-5.17"
         style="fill:#96d439;fill-opacity:1;fill-rule:nonzero;stroke:none"
         id="path34" />
      <path
         d="m 2099.8,696.98 c -517.87,0 -937.69,62.098 -937.69,138.711 0,28.887 59.74,55.731 161.94,77.938 9.29,-15.149 20.04,-28.551 32.03,-40.149 -0.03,0.02 -0.06,0.032 -0.09,0.051 37.02,-36.07 85.85,-54.851 139.38,-54.851 66.51,0 125.79,29.011 164.15,84.14 9.59,-8.929 24.08,-14.621 42.15,-17.992 0.94,-2.168 1.9,-4.289 2.89,-6.41 -0.05,0.023 -0.1,0.031 -0.16,0.051 11.15,-23.77 25.59,-43.957 42.57,-60.391 -0.02,0.012 -0.04,0.024 -0.07,0.043 35.8,-34.883 83.03,-53.043 134.78,-53.043 87.33,0 161.75,51.703 190.16,148.102 3.29,-10.231 7.1,-19.942 11.4,-29.11 -0.05,0.02 -0.1,0.032 -0.15,0.051 11.15,-23.769 25.58,-43.961 42.57,-60.402 -0.02,0.019 -0.05,0.031 -0.07,0.039 35.81,-34.867 83.01,-53.039 134.78,-53.039 76.18,0 142.54,39.351 177.1,113.39 16.62,2.692 30.47,7.192 40.59,14.121 9.17,-14.812 19.75,-27.929 31.52,-39.32 -0.03,0.02 -0.07,0.039 -0.1,0.059 37.01,-36.059 85.85,-54.848 139.37,-54.848 79.08,0 147.93,41.008 183.55,118.149 128.34,-23.731 205.08,-53.829 205.08,-86.579 0,-76.613 -419.81,-138.711 -937.68,-138.711"
         style="fill:#74b935;fill-opacity:1;fill-rule:nonzero;stroke:none"
         id="path36" />
      <path
         d="m 2323.78,1040.74 c 0,0 177.62,-19.53 173.03,-109.209 -4.6,-89.672 -228.21,-33.34 -379.95,-33.34 0,0 -67.25,91.399 64.38,143.709 l 142.54,-1.16"
         style="fill:#fac2e3;fill-opacity:1;fill-rule:nonzero;stroke:none"
         id="path38" />
      <path
         d="m 2437.52,884.199 c 3.24,6.949 6.2,14.199 8.86,21.762 8.01,1.738 15.59,4.457 23,7.617 2.71,-5.25 5.58,-10.328 8.6,-15.219 -10.1,-6.937 -23.89,-11.449 -40.46,-14.16"
         style="fill:#e89dc9;fill-opacity:1;fill-rule:nonzero;stroke:none"
         id="path40" />
      <path
         d="m 1819.55,1040.74 c 0,0 -177.62,-19.53 -173.03,-109.209 4.6,-89.672 228.21,-33.34 379.95,-33.34 0,0 67.26,91.399 -64.38,143.709 l -142.54,-1.16"
         style="fill:#fac2e3;fill-opacity:1;fill-rule:nonzero;stroke:none"
         id="path42" />
      <path
         d="m 1701.63,884.941 c -18.02,3.379 -32.46,9.079 -42.02,18.008 2.96,4.262 5.79,8.672 8.49,13.242 8.19,-3.761 16.49,-7.14 25.3,-9.39 2.45,-7.582 5.2,-14.871 8.23,-21.86"
         style="fill:#e89dc9;fill-opacity:1;fill-rule:nonzero;stroke:none"
         id="path44" />
      <path
         d="m 2299.84,2140.09 c 0,0 578.14,-507.48 351.16,-517.95 -140.18,-6.48 -396.85,440.91 -398.36,512.97 l 47.2,4.98"
         style="fill:#fac2e3;fill-opacity:1;fill-rule:nonzero;stroke:none"
         id="path46" />
      <path
         d="m 2649.2,1620.82 c -36.93,0 -81.57,30.36 -127.37,76.46 45.36,-45.38 89.54,-75.21 126.13,-75.21 1.01,0 2.04,0.02 3.04,0.07 25.6,1.18 40.97,8.7 48.07,21.08 0.64,0.1 1.29,0.21 1.92,0.32 -6.7,-13.28 -22.13,-21.42 -48.75,-22.65 -1.01,-0.05 -2.02,-0.07 -3.04,-0.07"
         style="fill:#65bde3;fill-opacity:1;fill-rule:nonzero;stroke:none"
         id="path48" />
      <path
         d="m 2647.96,1622.07 c -36.59,0 -80.77,29.83 -126.13,75.21 -6.69,6.73 -13.41,13.81 -20.13,21.17 -13.92,44.45 -30.55,86.49 -48.51,125.62 76.99,-108.22 165.81,-202.15 230.76,-202.15 1.02,0 2.03,0.02 3.04,0.07 4.36,0.2 8.33,0.65 12.08,1.23 -7.1,-12.38 -22.47,-19.9 -48.07,-21.08 -1,-0.05 -2.03,-0.07 -3.04,-0.07"
         style="fill:#f9b1dc;fill-opacity:1;fill-rule:nonzero;stroke:none"
         id="path50" />
      <path
         d="m 1849.17,2120.6 c 0,0 -583.97,-500.75 -357.12,-513.87 140.09,-8.08 401.91,436.31 404.25,508.36 l -47.13,5.51"
         style="fill:#fac2e3;fill-opacity:1;fill-rule:nonzero;stroke:none"
         id="path52" />
      <path
         d="m 1494.61,1605.41 c -1.28,0 -2.55,0.04 -3.82,0.11 -26.61,1.53 -41.93,9.84 -48.48,23.19 0.63,-0.11 1.27,-0.22 1.92,-0.33 6.95,-12.48 22.22,-20.17 47.82,-21.65 1.26,-0.07 2.54,-0.11 3.81,-0.11 35.89,0 79.32,28.34 124.15,71.75 -45.27,-44.1 -89.17,-72.96 -125.4,-72.96"
         style="fill:#65bde3;fill-opacity:1;fill-rule:nonzero;stroke:none"
         id="path54" />
      <path
         d="m 1495.86,1606.62 c -1.27,0 -2.55,0.04 -3.81,0.11 -25.6,1.48 -40.87,9.17 -47.82,21.65 3.73,-0.62 7.7,-1.12 12.06,-1.37 1.26,-0.07 2.54,-0.11 3.82,-0.11 62.86,-0.01 148.8,86.88 224.97,189.51 -14.73,-34.9 -28.13,-72.14 -39.35,-111.55 -8.6,-9.32 -17.18,-18.17 -25.72,-26.49 -44.83,-43.41 -88.26,-71.75 -124.15,-71.75"
         style="fill:#f9b1dc;fill-opacity:1;fill-rule:nonzero;stroke:none"
         id="path56" />
      <path
         d="m 1908.4,2149.68 c 0,0 -414.44,-381.81 -264.54,-927.46 52.57,-191.35 162.54,-242.22 443,-242.22 261.36,0 353.42,47.88 420.71,258.17 154.1,481.52 -251.78,908.32 -251.78,908.32 l -347.39,3.19"
         style="fill:#fddef0;fill-opacity:1;fill-rule:nonzero;stroke:none"
         id="path58" />
      <path
         d="m 1980.15,2075.91 c 0,0 -310.66,-298.95 -205.9,-728.91 36.74,-150.79 113.6,-190.86 309.6,-190.86 182.63,0 246.97,37.71 294,203.41 107.69,379.44 -209.06,716.36 -209.06,716.36 h -188.64"
         style="fill:#f35cb5;fill-opacity:1;fill-rule:nonzero;stroke:none"
         id="path60" />
      <path
         d="m 2083.85,1156.14 c -0.19,0 -0.37,0 -0.56,0 0.19,0 0.37,0 0.56,0 0.41,0 0.81,0 1.22,0 v 0 c -0.41,0 -0.81,0 -1.22,0 m -0.75,0 c -0.11,0 -0.23,0 -0.34,0 0.11,0 0.23,0 0.34,0 m -0.63,0 c -0.09,0 -0.18,0 -0.27,0 0.1,0 0.17,0 0.27,0 m -0.51,0 c -0.11,0 -0.2,0 -0.31,0 0.09,0 0.22,0 0.31,0 m -0.57,0 c -0.09,0 -0.2,0 -0.29,0 0.09,0 0.2,0 0.29,0 m -0.54,0 c -0.1,0 -0.19,0 -0.29,0 0.1,0 0.19,0 0.29,0 m -0.58,0 c -0.07,0 -0.15,0 -0.23,0 0.07,0 0.16,0 0.23,0 m -0.55,0 c -0.06,0 -0.13,0 -0.18,0 0.06,0 0.12,0 0.18,0 m -0.58,0 c -0.01,0 -0.03,0 -0.04,0 0.01,0 0.03,0 0.04,0 m 274.08,132.62 v 0 c 8.95,20.5 17.01,43.97 24.63,70.79 12.62,44.47 19.41,88.34 21.56,131.16 -2.15,-42.82 -8.94,-86.69 -21.56,-131.16 -7.62,-26.82 -15.68,-50.29 -24.63,-70.79 m 46.2,202.01 c 0,0.13 0.01,0.31 0.02,0.45 -0.01,-0.15 -0.02,-0.31 -0.02,-0.45 m 0.03,0.6 c 0,0.11 0.01,0.24 0.01,0.35 0,-0.11 -0.01,-0.24 -0.01,-0.35 m 0.02,0.58 c 0.01,0.09 0.01,0.18 0.02,0.27 -0.01,-0.09 -0.01,-0.18 -0.02,-0.27 m 0.03,0.56 c 0,0.06 0.01,0.14 0.01,0.2 0,-0.06 -0.01,-0.14 -0.01,-0.2 m 0.03,0.58 c 0,0.04 0,0.05 0,0.1 0,-0.04 0,-0.07 0,-0.1 m 0.02,0.55 0.01,0.02 -0.01,-0.02"
         style="fill:#e89ac7;fill-opacity:1;fill-rule:nonzero;stroke:none"
         id="path62" />
      <path
         d="m 2083.85,1156.14 c -0.19,0 -0.37,0 -0.56,0 -0.07,0 -0.12,0 -0.19,0 -0.11,0 -0.23,0 -0.34,0 -0.09,0 -0.19,0 -0.29,0 -0.1,0 -0.17,0 -0.27,0 -0.07,0 -0.16,0 -0.24,0 -0.09,0 -0.22,0 -0.31,0 -0.09,0 -0.17,0 -0.26,0 -0.09,0 -0.2,0 -0.29,0 -0.08,0 -0.17,0 -0.25,0 -0.1,0 -0.19,0 -0.29,0 -0.1,0 -0.19,0 -0.29,0 -0.07,0 -0.16,0 -0.23,0 -0.11,0 -0.21,0 -0.32,0 -0.06,0 -0.12,0 -0.18,0 -0.14,0 -0.26,0 -0.4,0 -0.01,0 -0.03,0 -0.04,0 -8.94,0.03 -17.62,0.15 -26.07,0.36 -8.21,20.5 -17.77,40.16 -28.3,58.39 -0.83,1.43 -1.67,2.87 -2.51,4.29 6.59,0.74 12.98,1.6 19.1,2.54 36.78,5.66 69,18.18 97.17,35.87 -21.11,-29.01 -39.52,-63.88 -53.42,-101.45 -0.41,0 -0.81,0 -1.22,0 m 269.37,132.62 c -29.88,31.18 -62.46,50.27 -93.07,50.27 -15.76,0 -31.66,-4.46 -47.26,-12.59 33.95,44.1 58.21,97.74 75.16,153.21 34.42,112.63 44.25,241.71 35.1,360.85 45.7,-96.92 82.31,-216.94 76.41,-346.84 l -0.01,-0.02 c 0,-0.16 -0.01,-0.29 -0.02,-0.45 0,-0.05 0,-0.06 0,-0.1 -0.01,-0.13 -0.01,-0.25 -0.02,-0.38 0,-0.06 -0.01,-0.14 -0.01,-0.2 0,-0.1 -0.01,-0.19 -0.01,-0.29 -0.01,-0.09 -0.01,-0.18 -0.02,-0.27 0,-0.08 0,-0.15 -0.01,-0.23 0,-0.11 -0.01,-0.24 -0.01,-0.35 -0.01,-0.06 -0.01,-0.1 -0.01,-0.15 -0.01,-0.14 -0.02,-0.32 -0.02,-0.45 0,-0.02 -0.01,-0.05 -0.01,-0.06 -2.15,-42.82 -8.94,-86.69 -21.56,-131.16 -7.62,-26.82 -15.68,-50.29 -24.63,-70.79 m -560.83,1.05 c -2.88,7.03 -5.59,14.41 -8.14,22.13 5.49,-4.78 10.84,-9.74 16.13,-14.76 -2.68,-2.36 -5.35,-4.81 -7.99,-7.37"
         style="fill:#e1409e;fill-opacity:1;fill-rule:nonzero;stroke:none"
         id="path64" />
      <path
         d="m 2517.56,1661.78 c -4.74,19.22 -10.05,38.07 -15.82,56.51 0.01,-0.01 0,0 0.01,-0.01 5.77,-18.42 11.08,-37.3 15.81,-56.5"
         style="fill:#66b3dd;fill-opacity:1;fill-rule:nonzero;stroke:none"
         id="path66" />
      <path
         d="m 2501.75,1718.28 c -0.01,0.01 0,0 -0.01,0.01 -0.02,0.07 -0.03,0.1 -0.05,0.17 l 0.01,-0.01 c 0.02,-0.07 0.03,-0.11 0.05,-0.17 m -48.56,125.79 c -0.01,0.02 -0.02,0.03 -0.03,0.04 -12.82,27.94 -26.33,54.4 -40,79.16 13.68,-24.77 27.2,-51.25 40.03,-79.2"
         style="fill:#f8a5d6;fill-opacity:1;fill-rule:nonzero;stroke:none"
         id="path68" />
      <path
         d="m 2501.7,1718.45 -0.01,0.01 c -13.92,44.44 -30.57,86.53 -48.53,125.65 0.01,-0.01 0.02,-0.02 0.03,-0.04 17.96,-39.13 34.59,-81.17 48.51,-125.62"
         style="fill:#f797d0;fill-opacity:1;fill-rule:nonzero;stroke:none"
         id="path70" />
      <path
         d="m 2445.6,1122.31 c -10.16,34.12 -24.3,66.87 -40.97,96.11 -6.42,11.29 -13.21,22.04 -20.3,32.17 14.8,28.22 27.9,61.16 40.18,99.49 88.62,276.63 -7.78,535.21 -105.85,705.17 2.89,0.92 5.75,1.88 8.57,2.88 26.08,-35.81 56.41,-81.41 85.93,-134.86 13.67,-24.76 27.18,-51.22 40,-79.16 17.96,-39.12 34.61,-81.21 48.53,-125.65 0.02,-0.07 0.03,-0.1 0.05,-0.17 5.77,-18.44 11.08,-37.29 15.82,-56.51 26.31,-106.74 35.16,-224.93 9.66,-348.17 -38.47,-50.55 -68.94,-120.01 -81.62,-191.3 m -746.37,7.3 c -0.63,3.72 -1.31,7.45 -2.05,11.16 1.62,-0.84 3.25,-1.67 4.89,-2.5 -0.97,-2.87 -1.92,-5.76 -2.84,-8.66"
         style="fill:#fabde1;fill-opacity:1;fill-rule:nonzero;stroke:none"
         id="path72" />
      <path
         d="m 2183.2,2769.53 c 0,0 -33.03,748.03 210.02,870.74 243.04,122.7 -44.84,-847.14 -115.63,-917.94 l -94.39,47.2"
         style="fill:#fddef0;fill-opacity:1;fill-rule:nonzero;stroke:none"
         id="path74" />
      <path
         d="m 2220.79,2752.29 c 0,0 3.44,689.03 136.57,758 150.23,77.84 -71.3,-629.55 -101.21,-772.9 l -35.36,14.9"
         style="fill:#f35cb5;fill-opacity:1;fill-rule:nonzero;stroke:none"
         id="path76" />
      <path
         d="m 2294.57,2746.87 c -0.16,0.14 -0.31,0.26 -0.47,0.4 17.25,32.35 39.93,89.52 63.7,159.92 h 0.71 c -23.88,-70.74 -46.66,-128.09 -63.94,-160.32 m 110.99,313.1 c -0.16,0.28 -0.32,0.55 -0.48,0.83 74.83,266.11 131.33,590.19 25.97,590.19 -3.79,0 -7.81,-0.42 -12.02,-1.28 4.5,0.97 8.77,1.44 12.79,1.44 105.46,0 48.7,-324.9 -26.26,-591.18"
         style="fill:#66b3dd;fill-opacity:1;fill-rule:nonzero;stroke:none"
         id="path78" />
      <path
         d="m 2358.51,2907.19 h -0.71 c 15.7,46.53 31.88,98.83 47.28,153.61 0.16,-0.28 0.32,-0.55 0.48,-0.83 -15.33,-54.46 -31.43,-106.5 -47.05,-152.78"
         style="fill:#fcd9ee;fill-opacity:1;fill-rule:nonzero;stroke:none"
         id="path80" />
      <path
         d="m 2294.1,2747.27 c -0.05,0.04 -0.11,0.09 -0.16,0.13 84.13,158.16 296.45,903.28 136.72,903.28 -4.35,0 -8.96,-0.55 -13.86,-1.68 115.02,-51.8 -83.55,-740.19 -130.09,-895.73 -7.34,5.73 -15.08,11.1 -23.14,16.08 41.88,169.59 189.8,663.81 132.6,737.63 7.02,61.66 5.41,108.09 -9.87,129.18 2.54,1.47 5.08,2.95 7.69,4.27 9.08,4.59 17.4,7.64 25.04,9.28 4.21,0.86 8.23,1.28 12.02,1.28 105.36,0 48.86,-324.08 -25.97,-590.19 -15.4,-54.78 -31.58,-107.08 -47.28,-153.61 -23.77,-70.4 -46.45,-127.57 -63.7,-159.92"
         style="fill:#fabde1;fill-opacity:1;fill-rule:nonzero;stroke:none"
         id="path82" />
      <path
         d="m 2293.94,2747.4 c -2.37,2 -4.77,3.95 -7.23,5.87 46.54,155.54 245.11,843.93 130.09,895.73 4.9,1.13 9.51,1.68 13.86,1.68 159.73,0 -52.59,-745.12 -136.72,-903.28"
         style="fill:#f89dd3;fill-opacity:1;fill-rule:nonzero;stroke:none"
         id="path84" />
      <path
         d="m 2263.57,2769.35 c -0.57,0.35 -1.13,0.7 -1.71,1.05 -9.96,6.13 -20.45,11.69 -31.43,16.67 36.74,182.83 143.73,526.43 165.74,719.91 57.2,-73.82 -90.72,-568.04 -132.6,-737.63"
         style="fill:#f24eaf;fill-opacity:1;fill-rule:nonzero;stroke:none"
         id="path86" />
      <path
         d="m 2006.71,2769.53 c 0,0 33.05,748.03 -210.02,870.74 -243.04,122.7 44.84,-847.14 115.63,-917.94 l 94.39,47.2"
         style="fill:#fddef0;fill-opacity:1;fill-rule:nonzero;stroke:none"
         id="path88" />
      <path
         d="m 1969.13,2752.29 c 0,0 -3.45,689.03 -136.58,758 -150.22,77.84 71.31,-629.55 101.21,-772.9 l 35.37,14.9"
         style="fill:#f35cb5;fill-opacity:1;fill-rule:nonzero;stroke:none"
         id="path90" />
      <path
         d="m 1889.95,2757.38 c -16.49,33.42 -37.07,86.2 -58.54,149.81 h 0.71 c 21.37,-63.32 41.87,-115.93 58.33,-149.41 -0.17,-0.13 -0.33,-0.27 -0.5,-0.4 m -107.24,308.47 c -74.14,265.16 -129.29,585.3 -24.62,585.3 4.06,0 8.36,-0.48 12.9,-1.46 -4.26,0.87 -8.3,1.3 -12.12,1.3 -104.59,0 -49.69,-319.3 24.31,-584.28 -0.16,-0.29 -0.32,-0.57 -0.47,-0.86"
         style="fill:#66b3dd;fill-opacity:1;fill-rule:nonzero;stroke:none"
         id="path92" />
      <path
         d="m 1832.12,2907.19 h -0.71 c -16.19,47.95 -32.88,102.05 -48.7,158.66 0.15,0.29 0.31,0.57 0.47,0.86 15.89,-56.92 32.67,-111.31 48.94,-159.52"
         style="fill:#fcd9ee;fill-opacity:1;fill-rule:nonzero;stroke:none"
         id="path94" />
      <path
         d="m 1890.45,2757.78 c -16.46,33.48 -36.96,86.09 -58.33,149.41 -16.27,48.21 -33.05,102.6 -48.94,159.52 -74,264.98 -128.9,584.28 -24.31,584.28 3.82,0 7.86,-0.43 12.12,-1.3 7.61,-1.65 15.9,-4.7 24.93,-9.26 2.61,-1.32 5.15,-2.8 7.69,-4.27 -15.27,-21.09 -16.89,-67.52 -9.87,-129.18 -55.97,-72.25 84.53,-547.21 129.79,-726.38 -8.25,-4.77 -16.18,-9.98 -23.81,-15.63 -52.13,175.53 -238.95,833.43 -126.61,884.03 -4.9,1.13 -9.51,1.68 -13.86,1.68 -156.43,0 44,-714.67 131.37,-892.76 -0.06,-0.05 -0.12,-0.1 -0.17,-0.14"
         style="fill:#fabde1;fill-opacity:1;fill-rule:nonzero;stroke:none"
         id="path96" />
      <path
         d="m 1890.62,2757.92 c -87.37,178.09 -287.8,892.76 -131.37,892.76 4.35,0 8.96,-0.55 13.86,-1.68 -112.34,-50.6 74.48,-708.5 126.61,-884.03 -3.08,-2.28 -6.12,-4.63 -9.1,-7.05"
         style="fill:#f89dd3;fill-opacity:1;fill-rule:nonzero;stroke:none"
         id="path98" />
      <path
         d="m 1923.53,2780.6 c -45.26,179.17 -185.76,654.13 -129.79,726.38 21.62,-190.02 125.2,-524.83 163.7,-709.93 -11.8,-4.71 -23.13,-10.2 -33.91,-16.45"
         style="fill:#f24eaf;fill-opacity:1;fill-rule:nonzero;stroke:none"
         id="path100" />
      <path
         d="m 2463.1,2284.4 c 0,-232.61 -158.27,-251.57 -364.84,-251.57 -206.57,0 -404.05,31.9 -404.05,264.52 0,110.07 62.09,174.8 91.88,286.86 39.22,147.55 138.92,233.47 285.76,233.47 160.82,0 282.09,-77.2 304.46,-220.4 22.83,-146.16 86.79,-214.02 86.79,-312.88"
         style="fill:#fddef0;fill-opacity:1;fill-rule:nonzero;stroke:none"
         id="path102" />
      <path
         d="m 1777.45,2103.36 c -0.88,0.67 -1.76,1.35 -2.63,2.03 0.03,-0.01 0.06,-0.03 0.09,-0.04 0.84,-0.67 1.68,-1.33 2.54,-1.99"
         style="fill:#65bde3;fill-opacity:1;fill-rule:nonzero;stroke:none"
         id="path104" />
      <path
         d="m 2230.39,2786.87 c -1.33,0.59 -2.68,1.18 -4.02,1.76 -0.25,0.19 -0.5,0.38 -0.75,0.58 1.61,-0.7 3.22,-1.41 4.81,-2.14 -0.01,-0.07 -0.03,-0.13 -0.04,-0.2"
         style="fill:#f254b2;fill-opacity:1;fill-rule:nonzero;stroke:none"
         id="path106" />
      <path
         d="m 2261.86,2770.4 c -9.98,6.06 -20.48,11.55 -31.47,16.47 0.01,0.07 0.03,0.13 0.04,0.2 10.98,-4.98 21.47,-10.54 31.43,-16.67"
         style="fill:#f147ac;fill-opacity:1;fill-rule:nonzero;stroke:none"
         id="path108" />
      <path
         d="m 2096.86,2033.76 c -122.96,0 -242.63,11.38 -319.41,69.6 -0.86,0.66 -1.7,1.32 -2.54,1.99 73.3,-31.11 167.78,-38.09 264.24,-38.09 206.58,0 364.83,18.96 364.83,251.58 0,98.88 -63.95,166.72 -86.77,312.88 -10.51,67.26 -42.85,119.93 -90.84,156.91 1.34,-0.58 2.69,-1.17 4.02,-1.76 10.99,-4.92 21.49,-10.41 31.47,-16.47 60.2,-37.07 101,-95.03 113.05,-172.19 22.84,-146.15 86.78,-214 86.78,-312.88 0,-232.61 -158.26,-251.57 -364.83,-251.57"
         style="fill:#fbcae7;fill-opacity:1;fill-rule:nonzero;stroke:none"
         id="path110" />
      <path
         d="m 2072.86,2275.89 v -101.84 c 0,-3.21 2.61,-5.82 5.83,-5.82 3.21,0 5.82,2.61 5.82,5.82 v 101.84 c 0,3.22 -2.61,5.82 -5.82,5.82 -3.22,0 -5.83,-2.6 -5.83,-5.82"
         style="fill:#3e1416;fill-opacity:1;fill-rule:nonzero;stroke:none"
         id="path112" />
      <path
         d="m 2165.98,2203.98 c -21.69,-15.94 -50.06,-25.65 -81.11,-25.65 -37.52,-0.01 -71.07,14.17 -93.74,36.32 -2.3,2.25 -5.99,2.2 -8.24,-0.1 -2.24,-2.3 -2.2,-5.98 0.1,-8.23 25.01,-24.41 61.43,-39.63 101.88,-39.64 33.48,0.01 64.23,10.46 88,27.91 2.6,1.9 3.15,5.55 1.25,8.14 -1.9,2.59 -5.55,3.15 -8.14,1.25"
         style="fill:#3e1416;fill-opacity:1;fill-rule:nonzero;stroke:none"
         id="path114" />
      <path
         d="m 2081.64,2235.14 c -31.88,0.1 -73.08,67.8 -60.1,96.88 12.17,27.26 102.78,27.61 119.36,0 16.39,-27.18 -27.53,-96.99 -59.26,-96.88"
         style="fill:#f35cb5;fill-opacity:1;fill-rule:nonzero;stroke:none"
         id="path116" />
      <path
         d="m 2038.36,2297.64 c -0.95,0 -1.86,0.04 -2.7,0.11 -6.43,10.75 -9.95,23.17 -6.58,30.72 3.24,7.26 16.93,10.91 30.91,10.91 6.8,0 13.67,-0.86 19.42,-2.61 -0.64,-6.98 -3.2,-13.58 -8.52,-20.67 -11.42,-15.22 -24.09,-18.46 -32.53,-18.46"
         style="fill:#f681c6;fill-opacity:1;fill-rule:nonzero;stroke:none"
         id="path118" />
      <path
         d="m 2081.71,2235.14 c -0.02,0 -0.05,0 -0.07,0 v 0 0 c 0.02,0 0.04,0 0.07,0 v 0 m -0.21,0 c 0,0 -0.01,0 -0.02,0 0.01,0 0.01,0 0.02,0"
         style="fill:#3e1316;fill-opacity:1;fill-rule:nonzero;stroke:none"
         id="path120" />
      <path
         d="m 2081.71,2235.14 c -0.03,0 -0.05,0 -0.07,0 v 0 c -0.05,0 -0.09,0 -0.14,0 -0.01,0 -0.01,0 -0.02,0 -12.27,0.12 -25.89,10.26 -37.28,24.31 23.73,1.44 41.22,11.8 61.46,32.48 15.42,15.73 22.77,32.06 25.09,49.58 0.39,-0.24 0.77,-0.48 1.15,-0.72 1.13,-1.2 2.16,-2.46 2.96,-3.8 16.37,-27.16 -27.47,-96.89 -59.2,-96.89 -0.02,0 -0.04,0 -0.07,0 -6.59,0.02 -13.56,2.97 -20.36,7.82 8.7,-7.77 17.96,-12.75 26.55,-12.78 -0.02,0 -0.05,0 -0.07,0"
         style="fill:#f24eaf;fill-opacity:1;fill-rule:nonzero;stroke:none"
         id="path122" />
      <path
         d="m 2084.51,2235.29 v 0.02 c 30.95,3.79 71.05,68.33 57.08,95.48 -0.01,0.02 -0.01,0.03 -0.02,0.04 -0.07,0.13 -0.13,0.26 -0.2,0.39 h -0.01 c -0.13,0.24 -0.26,0.47 -0.4,0.71 -0.02,0.03 -0.04,0.06 -0.06,0.09 v 0 c -0.57,0.96 -1.23,1.88 -1.98,2.77 -1.88,2.24 -4.27,4.27 -7.1,6.08 -0.01,0.01 -0.01,0.01 -0.02,0.02 4,-2.55 7.23,-5.48 9.27,-8.87 15.92,-26.41 -25.11,-93.09 -56.56,-96.73"
         style="fill:#e89ac7;fill-opacity:1;fill-rule:nonzero;stroke:none"
         id="path124" />
      <path
         d="m 2081.87,2235.14 c -0.03,0 -0.05,0 -0.08,0 0,0 0,0 -0.01,0 0.04,0 0.08,0 0.11,0 0.87,0.01 1.74,0.07 2.62,0.17 v -0.02 c -0.89,-0.1 -1.77,-0.15 -2.64,-0.15"
         style="fill:#3b1114;fill-opacity:1;fill-rule:nonzero;stroke:none"
         id="path126" />
      <path
         d="m 2081.78,2235.14 v 0 c 0.04,0 0.08,0 0.11,0 -0.03,0 -0.07,0 -0.11,0 m 59.81,95.65 c -0.01,0.02 -0.01,0.03 -0.02,0.04 0.01,-0.01 0.01,-0.02 0.02,-0.04 m -0.22,0.43 h -0.01 0.01 m -0.41,0.71 c -0.02,0.03 -0.04,0.06 -0.06,0.09 v 0 0 c 0.02,-0.03 0.04,-0.06 0.06,-0.09 m -2.04,2.86 c -1.86,2.21 -4.24,4.2 -7.02,6 -0.03,0.03 -0.05,0.05 -0.08,0.08 2.83,-1.81 5.22,-3.84 7.1,-6.08"
         style="fill:#e1409e;fill-opacity:1;fill-rule:nonzero;stroke:none"
         id="path128" />
      <path
         d="m 2084.51,2235.31 v 0 c 30.95,3.8 71.05,68.34 57.08,95.48 13.97,-27.15 -26.13,-91.69 -57.08,-95.48 m 57.06,95.52 c -0.07,0.13 -0.13,0.26 -0.2,0.39 0.07,-0.13 0.13,-0.26 0.2,-0.39 m -0.21,0.39 c -0.13,0.24 -0.26,0.47 -0.4,0.71 0.14,-0.24 0.27,-0.47 0.4,-0.71 m -0.46,0.8 c -0.57,0.96 -1.23,1.88 -1.98,2.77 0.75,-0.89 1.41,-1.81 1.98,-2.77"
         style="fill:#e682bd;fill-opacity:1;fill-rule:nonzero;stroke:none"
         id="path130" />
      <path
         d="m 2081.89,2235.14 c 0.87,0.01 1.74,0.07 2.62,0.17 v 0 c -0.88,-0.1 -1.75,-0.16 -2.62,-0.17"
         style="fill:#3b1014;fill-opacity:1;fill-rule:nonzero;stroke:none"
         id="path132" />
      <path
         d="m 2081.78,2235.14 c -8.59,0.03 -17.85,5.01 -26.55,12.78 6.8,-4.85 13.77,-7.8 20.36,-7.82 0.03,0 0.05,0 0.07,0 31.73,0 75.57,69.73 59.2,96.89 -0.8,1.34 -1.83,2.6 -2.96,3.8 2.78,-1.8 5.16,-3.79 7.02,-6 0.75,-0.89 1.41,-1.81 1.98,-2.77 v 0 c 0.02,-0.03 0.04,-0.06 0.06,-0.09 0.14,-0.24 0.27,-0.47 0.4,-0.71 h 0.01 c 0.07,-0.13 0.13,-0.26 0.2,-0.39 0.01,-0.01 0.01,-0.02 0.02,-0.04 13.97,-27.14 -26.13,-91.68 -57.08,-95.48 -0.88,-0.1 -1.75,-0.16 -2.62,-0.17 -0.03,0 -0.07,0 -0.11,0"
         style="fill:#e0369a;fill-opacity:1;fill-rule:nonzero;stroke:none"
         id="path134" />
      <path
         d="m 1858.22,2270.13 c -52.43,0 -94.95,28.76 -94.95,64.23 0,27.94 37.35,76.07 70.18,76.07 8.86,0 17.39,-3.5 24.77,-11.84 42.81,-48.41 94.93,-28.75 94.93,-64.23 0,-35.47 -42.5,-64.23 -94.93,-64.23"
         style="fill:#fabde1;fill-opacity:1;fill-rule:nonzero;stroke:none"
         id="path136" />
      <path
         d="m 2283.89,2270.13 c -52.43,0 -94.94,28.76 -94.94,64.23 0,35.48 52.12,15.82 94.94,64.23 7.38,8.34 15.91,11.84 24.77,11.84 32.83,0 70.17,-48.13 70.17,-76.07 0,-35.47 -42.5,-64.23 -94.94,-64.23"
         style="fill:#fabde1;fill-opacity:1;fill-rule:nonzero;stroke:none"
         id="path138" />
      <path
         d="m 2237.97,2507.8 c 0,-43.82 -18.51,-79.38 -41.33,-79.38 -22.82,0 -41.34,35.56 -41.34,79.38 0,43.83 18.52,79.37 41.34,79.37 22.82,0 41.33,-35.54 41.33,-79.37"
         style="fill:#3e1416;fill-opacity:1;fill-rule:nonzero;stroke:none"
         id="path140" />
      <path
         d="m 2224.97,2545.17 c 1.44,-9 -1.65,-16.95 -6.92,-17.8 -5.26,-0.85 -10.71,5.74 -12.15,14.72 -1.46,9 1.64,16.97 6.9,17.81 5.27,0.85 10.71,-5.75 12.17,-14.73"
         style="fill:#fddef0;fill-opacity:1;fill-rule:nonzero;stroke:none"
         id="path142" />
      <path
         d="m 2019.61,2507.8 c 0,-43.82 -18.49,-79.38 -41.32,-79.38 -22.82,0 -41.33,35.56 -41.33,79.38 0,43.83 18.51,79.37 41.33,79.37 22.83,0 41.32,-35.54 41.32,-79.37"
         style="fill:#3e1416;fill-opacity:1;fill-rule:nonzero;stroke:none"
         id="path144" />
      <path
         d="m 2006.61,2545.17 c 1.45,-9 -1.65,-16.95 -6.91,-17.8 -5.26,-0.85 -10.71,5.74 -12.15,14.72 -1.46,9 1.64,16.97 6.91,17.81 5.26,0.85 10.69,-5.75 12.15,-14.73"
         style="fill:#fddef0;fill-opacity:1;fill-rule:nonzero;stroke:none"
         id="path146" />
      <path
         d="m 2143.16,2231.52 c 0,0 0.27,0.45 0.89,1.38 9.35,13.97 93.57,129.76 353.07,166.29 1.11,0.15 1.89,1.18 1.74,2.3 -0.16,1.12 -1.19,1.9 -2.31,1.74 -277.96,-39.07 -356.67,-169.18 -356.89,-169.61 -0.58,-0.96 -0.27,-2.22 0.7,-2.8 0.96,-0.58 2.22,-0.27 2.8,0.7"
         style="fill:#f796d0;fill-opacity:1;fill-rule:nonzero;stroke:none"
         id="path148" />
      <path
         d="m 2145.28,2217.66 c 0,0.01 1.4,0.69 4.14,1.93 19.18,8.65 103.04,43.4 210.27,43.39 57.02,0 120.64,-9.81 184.73,-38.56 1.03,-0.46 2.24,0 2.7,1.03 0.46,1.03 0,2.24 -1.03,2.7 -64.7,29.02 -128.91,38.91 -186.4,38.91 -123.56,-0.01 -216.06,-45.66 -216.22,-45.73 -1.01,-0.5 -1.43,-1.73 -0.93,-2.74 0.5,-1.01 1.73,-1.43 2.74,-0.93"
         style="fill:#f796d0;fill-opacity:1;fill-rule:nonzero;stroke:none"
         id="path150" />
      <path
         d="m 2151.37,2235.91 c 0,-4.56 -3.68,-8.26 -8.23,-8.26 -4.56,0 -8.25,3.7 -8.25,8.26 0,4.54 3.69,8.24 8.25,8.24 4.55,0 8.23,-3.7 8.23,-8.24"
         style="fill:#f35cb5;fill-opacity:1;fill-rule:nonzero;stroke:none"
         id="path152" />
      <path
         d="m 2153.53,2218.31 c 0,-3.61 -2.91,-6.52 -6.5,-6.52 -3.59,0 -6.5,2.91 -6.5,6.52 0,3.6 2.91,6.5 6.5,6.5 3.59,0 6.5,-2.9 6.5,-6.5"
         style="fill:#f35cb5;fill-opacity:1;fill-rule:nonzero;stroke:none"
         id="path154" />
      <path
         d="m 2132.88,2219.79 c 0,-3.61 -2.91,-6.5 -6.52,-6.5 -3.59,0 -6.5,2.89 -6.5,6.5 0,3.59 2.91,6.5 6.5,6.5 3.61,0 6.52,-2.91 6.52,-6.5"
         style="fill:#f35cb5;fill-opacity:1;fill-rule:nonzero;stroke:none"
         id="path156" />
      <path
         d="m 2032.02,2234.34 c -0.22,0.43 -78.94,130.53 -356.89,169.61 -1.12,0.16 -2.15,-0.62 -2.31,-1.73 -0.16,-1.12 0.62,-2.15 1.74,-2.31 138.4,-19.48 226.93,-61.53 280.85,-98.62 26.96,-18.55 45.27,-35.87 56.82,-48.52 5.78,-6.33 9.86,-11.49 12.5,-15.05 1.32,-1.79 2.27,-3.17 2.89,-4.1 0.63,-0.94 0.9,-1.39 0.9,-1.39 0.58,-0.97 1.84,-1.28 2.8,-0.7 0.97,0.59 1.28,1.84 0.7,2.81"
         style="fill:#f796d0;fill-opacity:1;fill-rule:nonzero;stroke:none"
         id="path158" />
      <path
         d="m 2028.21,2222.04 c -0.17,0.07 -92.67,45.72 -216.23,45.74 -57.49,0 -121.71,-9.9 -186.41,-38.91 -1.02,-0.46 -1.48,-1.67 -1.02,-2.7 0.46,-1.03 1.67,-1.49 2.7,-1.03 64.08,28.74 127.7,38.55 184.73,38.55 61.27,0 114.92,-11.33 153.23,-22.67 19.15,-5.67 34.47,-11.34 44.99,-15.59 5.26,-2.12 9.32,-3.89 12.06,-5.12 2.74,-1.24 4.14,-1.93 4.14,-1.93 1.01,-0.5 2.24,-0.08 2.73,0.93 0.51,1.01 0.09,2.23 -0.92,2.73"
         style="fill:#f796d0;fill-opacity:1;fill-rule:nonzero;stroke:none"
         id="path160" />
      <path
         d="m 2020.3,2236.62 c 0,-4.56 3.69,-8.24 8.24,-8.24 4.55,0 8.24,3.68 8.24,8.24 0,4.55 -3.69,8.24 -8.24,8.24 -4.55,0 -8.24,-3.69 -8.24,-8.24"
         style="fill:#f35cb5;fill-opacity:1;fill-rule:nonzero;stroke:none"
         id="path162" />
      <path
         d="m 2018.14,2219.02 c 0,-3.6 2.91,-6.51 6.5,-6.51 3.61,0 6.52,2.91 6.52,6.51 0,3.59 -2.91,6.49 -6.52,6.49 -3.59,0 -6.5,-2.9 -6.5,-6.49"
         style="fill:#f35cb5;fill-opacity:1;fill-rule:nonzero;stroke:none"
         id="path164" />
      <path
         d="m 2038.8,2220.49 c 0,-3.58 2.91,-6.49 6.5,-6.49 3.6,0 6.51,2.91 6.51,6.49 0,3.6 -2.91,6.51 -6.51,6.51 -3.59,0 -6.5,-2.91 -6.5,-6.51"
         style="fill:#f35cb5;fill-opacity:1;fill-rule:nonzero;stroke:none"
         id="path166" />
      <path
         d="m 1704.41,1067.78 c 0,-160.108 -93.74,-247.772 -209.37,-247.772 -115.64,0 -209.39,87.664 -209.39,247.772 0,160.11 107.8,339.46 209.39,339.46 95.38,0 209.37,-179.35 209.37,-339.46"
         style="fill:#f35cb5;fill-opacity:1;fill-rule:nonzero;stroke:none"
         id="path168" />
      <g
         id="g170">
        <g
           id="g172"
           clip-path="url(#clipPath176)">
          <path
             d="m 1446.3,1360.86 c 0,-17.39 -14.09,-31.49 -31.49,-31.49 -17.39,0 -31.49,14.1 -31.49,31.49 0,17.4 14.1,31.5 31.49,31.5 17.4,0 31.49,-14.1 31.49,-31.5"
             style="fill:#e42fa1;fill-opacity:1;fill-rule:nonzero;stroke:none"
             id="path178" />
          <path
             d="m 1525.65,1360.86 c 0,-16.58 -13.44,-30.04 -30.03,-30.04 -16.57,0 -30.02,13.46 -30.02,30.04 0,16.59 13.45,30.04 30.02,30.04 16.59,0 30.03,-13.45 30.03,-30.04"
             style="fill:#ffffff;fill-opacity:1;fill-rule:nonzero;stroke:none"
             id="path180" />
          <path
             d="m 1606.47,1360.86 c 0,-16.58 -13.46,-30.04 -30.03,-30.04 -16.59,0 -30.03,13.46 -30.03,30.04 0,16.59 13.44,30.04 30.03,30.04 16.57,0 30.03,-13.45 30.03,-30.04"
             style="fill:#4dc5ea;fill-opacity:1;fill-rule:nonzero;stroke:none"
             id="path182" />
          <path
             d="m 1446.3,832.039 c 0,-17.379 -14.09,-31.5 -31.49,-31.5 -17.39,0 -31.49,14.121 -31.49,31.5 0,17.391 14.1,31.492 31.49,31.492 17.4,0 31.49,-14.101 31.49,-31.492"
             style="fill:#e42fa1;fill-opacity:1;fill-rule:nonzero;stroke:none"
             id="path184" />
          <path
             d="m 1525.65,832.039 c 0,-16.59 -13.44,-30.027 -30.03,-30.027 -16.57,0 -30.02,13.437 -30.02,30.027 0,16.582 13.45,30.031 30.02,30.031 16.59,0 30.03,-13.449 30.03,-30.031"
             style="fill:#ffffff;fill-opacity:1;fill-rule:nonzero;stroke:none"
             id="path186" />
          <path
             d="m 1606.47,832.039 c 0,-16.59 -13.46,-30.027 -30.03,-30.027 -16.59,0 -30.03,13.437 -30.03,30.027 0,16.582 13.44,30.031 30.03,30.031 16.57,0 30.03,-13.449 30.03,-30.031"
             style="fill:#4dc5ea;fill-opacity:1;fill-rule:nonzero;stroke:none"
             id="path188" />
          <path
             d="m 1379.9,1277.53 c 0,-17.4 -14.11,-31.5 -31.5,-31.5 -17.39,0 -31.5,14.1 -31.5,31.5 0,17.38 14.11,31.5 31.5,31.5 17.39,0 31.5,-14.12 31.5,-31.5"
             style="fill:#e42fa1;fill-opacity:1;fill-rule:nonzero;stroke:none"
             id="path190" />
          <path
             d="m 1649.44,1276.55 c 0,-17.4 -14.1,-31.5 -31.5,-31.5 -17.39,0 -31.49,14.1 -31.49,31.5 0,17.4 14.1,31.49 31.49,31.49 17.4,0 31.5,-14.09 31.5,-31.49"
             style="fill:#e42fa1;fill-opacity:1;fill-rule:nonzero;stroke:none"
             id="path192" />
          <path
             d="m 1468.28,1277.53 c 0,-16.58 -13.46,-30.03 -30.02,-30.03 -16.59,0 -30.04,13.45 -30.04,30.03 0,16.58 13.45,30.02 30.04,30.02 16.56,0 30.02,-13.44 30.02,-30.02"
             style="fill:#ffffff;fill-opacity:1;fill-rule:nonzero;stroke:none"
             id="path194" />
          <path
             d="m 1558.12,1277.53 c 0,-16.58 -13.44,-30.03 -30.02,-30.03 -16.59,0 -30.03,13.45 -30.03,30.03 0,16.58 13.44,30.02 30.03,30.02 16.58,0 30.02,-13.44 30.02,-30.02"
             style="fill:#4dc5ea;fill-opacity:1;fill-rule:nonzero;stroke:none"
             id="path196" />
          <path
             d="m 1390.84,917.18 c 0,-17.86 -14.48,-32.328 -32.32,-32.328 -17.86,0 -32.35,14.468 -32.35,32.328 0,17.851 14.49,32.32 32.35,32.32 17.84,0 32.32,-14.469 32.32,-32.32"
             style="fill:#e42fa1;fill-opacity:1;fill-rule:nonzero;stroke:none"
             id="path198" />
          <path
             d="m 1667.51,916.172 c 0,-17.852 -14.48,-32.32 -32.33,-32.32 -17.86,0 -32.33,14.468 -32.33,32.32 0,17.859 14.47,32.328 32.33,32.328 17.85,0 32.33,-14.469 32.33,-32.328"
             style="fill:#e42fa1;fill-opacity:1;fill-rule:nonzero;stroke:none"
             id="path200" />
          <path
             d="m 1481.56,917.18 c 0,-17.032 -13.8,-30.84 -30.82,-30.84 -17.03,0 -30.83,13.808 -30.83,30.84 0,17.019 13.8,30.808 30.83,30.808 17.02,0 30.82,-13.789 30.82,-30.808"
             style="fill:#ffffff;fill-opacity:1;fill-rule:nonzero;stroke:none"
             id="path202" />
          <path
             d="m 1573.78,917.18 c 0,-17.032 -13.81,-30.84 -30.83,-30.84 -17.01,0 -30.83,13.808 -30.83,30.84 0,17.019 13.82,30.808 30.83,30.808 17.02,0 30.83,-13.789 30.83,-30.808"
             style="fill:#4dc5ea;fill-opacity:1;fill-rule:nonzero;stroke:none"
             id="path204" />
          <path
             d="m 1527.36,1191.19 c 0,-17.39 -14.09,-31.49 -31.49,-31.49 -17.4,0 -31.5,14.1 -31.5,31.49 0,17.4 14.1,31.5 31.5,31.5 17.4,0 31.49,-14.1 31.49,-31.5"
             style="fill:#e42fa1;fill-opacity:1;fill-rule:nonzero;stroke:none"
             id="path206" />
          <path
             d="m 1338.39,1191.19 c 0,-16.58 -13.45,-30.02 -30.03,-30.02 -16.58,0 -30.04,13.44 -30.04,30.02 0,16.59 13.46,30.04 30.04,30.04 16.58,0 30.03,-13.45 30.03,-30.04"
             style="fill:#ffffff;fill-opacity:1;fill-rule:nonzero;stroke:none"
             id="path208" />
          <path
             d="m 1619.65,1191.19 c 0,-16.58 -13.45,-30.02 -30.03,-30.02 -16.58,0 -30.03,13.44 -30.03,30.02 0,16.59 13.45,30.04 30.03,30.04 16.58,0 30.03,-13.45 30.03,-30.04"
             style="fill:#ffffff;fill-opacity:1;fill-rule:nonzero;stroke:none"
             id="path210" />
          <path
             d="m 1432.15,1191.19 c 0,-16.58 -13.45,-30.02 -30.04,-30.02 -16.58,0 -30.02,13.44 -30.02,30.02 0,16.59 13.44,30.04 30.02,30.04 16.59,0 30.04,-13.45 30.04,-30.04"
             style="fill:#4dc5ea;fill-opacity:1;fill-rule:nonzero;stroke:none"
             id="path212" />
          <path
             d="m 1713.41,1191.19 c 0,-16.58 -13.45,-30.02 -30.04,-30.02 -16.58,0 -30.03,13.44 -30.03,30.02 0,16.59 13.45,30.04 30.03,30.04 16.59,0 30.04,-13.45 30.04,-30.04"
             style="fill:#4dc5ea;fill-opacity:1;fill-rule:nonzero;stroke:none"
             id="path214" />
          <path
             d="m 1336.93,1097.25 c 0,-17.4 -14.11,-31.5 -31.5,-31.5 -17.38,0 -31.49,14.1 -31.49,31.5 0,17.39 14.11,31.49 31.49,31.49 17.39,0 31.5,-14.1 31.5,-31.49"
             style="fill:#e42fa1;fill-opacity:1;fill-rule:nonzero;stroke:none"
             id="path216" />
          <path
             d="m 1621.11,1097.25 c 0,-16.59 -13.44,-30.03 -30.03,-30.03 -16.59,0 -30.03,13.44 -30.03,30.03 0,16.59 13.44,30.03 30.03,30.03 16.59,0 30.03,-13.44 30.03,-30.03"
             style="fill:#ffffff;fill-opacity:1;fill-rule:nonzero;stroke:none"
             id="path218" />
          <path
             d="m 1430.68,1097.25 c 0,-16.59 -13.45,-30.03 -30.03,-30.03 -16.58,0 -30.03,13.44 -30.03,30.03 0,16.59 13.45,30.03 30.03,30.03 16.58,0 30.03,-13.44 30.03,-30.03"
             style="fill:#ffffff;fill-opacity:1;fill-rule:nonzero;stroke:none"
             id="path220" />
          <path
             d="m 1716.33,1097.25 c 0,-16.59 -13.44,-30.03 -30.03,-30.03 -16.58,0 -30.03,13.44 -30.03,30.03 0,16.59 13.45,30.03 30.03,30.03 16.59,0 30.03,-13.44 30.03,-30.03"
             style="fill:#4dc5ea;fill-opacity:1;fill-rule:nonzero;stroke:none"
             id="path222" />
          <path
             d="m 1525.9,1097.25 c 0,-16.59 -13.45,-30.03 -30.03,-30.03 -16.59,0 -30.03,13.44 -30.03,30.03 0,16.59 13.44,30.03 30.03,30.03 16.58,0 30.03,-13.44 30.03,-30.03"
             style="fill:#4dc5ea;fill-opacity:1;fill-rule:nonzero;stroke:none"
             id="path224" />
          <path
             d="m 1522.97,1000.76 c 0,-17.401 -14.1,-31.49 -31.51,-31.49 -17.38,0 -31.48,14.089 -31.48,31.49 0,17.4 14.1,31.49 31.48,31.49 17.41,0 31.51,-14.09 31.51,-31.49"
             style="fill:#e42fa1;fill-opacity:1;fill-rule:nonzero;stroke:none"
             id="path226" />
          <path
             d="m 1334,1000.76 c 0,-16.592 -13.45,-30.041 -30.04,-30.041 -16.58,0 -30.02,13.449 -30.02,30.041 0,16.58 13.44,30.02 30.02,30.02 16.59,0 30.04,-13.44 30.04,-30.02"
             style="fill:#ffffff;fill-opacity:1;fill-rule:nonzero;stroke:none"
             id="path228" />
          <path
             d="m 1615.26,1000.76 c 0,-16.592 -13.44,-30.041 -30.04,-30.041 -16.58,0 -30.01,13.449 -30.01,30.041 0,16.58 13.43,30.02 30.01,30.02 16.6,0 30.04,-13.44 30.04,-30.02"
             style="fill:#ffffff;fill-opacity:1;fill-rule:nonzero;stroke:none"
             id="path230" />
          <path
             d="m 1427.74,1000.76 c 0,-16.592 -13.43,-30.041 -30.03,-30.041 -16.57,0 -30.01,13.449 -30.01,30.041 0,16.58 13.44,30.02 30.01,30.02 16.6,0 30.03,-13.44 30.03,-30.02"
             style="fill:#4dc5ea;fill-opacity:1;fill-rule:nonzero;stroke:none"
             id="path232" />
          <path
             d="m 1709,1000.76 c 0,-16.592 -13.44,-30.041 -30.01,-30.041 -16.59,0 -30.04,13.449 -30.04,30.041 0,16.58 13.45,30.02 30.04,30.02 16.57,0 30.01,-13.44 30.01,-30.02"
             style="fill:#4dc5ea;fill-opacity:1;fill-rule:nonzero;stroke:none"
             id="path234" />
        </g>
      </g>
      <path
         d="m 1324.05,913.629 c -4.33,7.062 -8.34,14.5 -12,22.312 0.18,-0.05 0.36,-0.101 0.54,-0.152 3.67,-7.719 7.67,-15.059 11.99,-22.039 -0.18,-0.039 -0.35,-0.078 -0.53,-0.121"
         style="fill:#999e39;fill-opacity:1;fill-rule:nonzero;stroke:none"
         id="path236" />
      <path
         d="m 1358.82,871.828 c -0.92,0.543 -1.83,1.09 -2.74,1.652 -11.99,11.598 -22.74,25 -32.03,40.149 0.18,0.043 0.35,0.082 0.53,0.121 0.79,-1.281 1.59,-2.551 2.4,-3.801 v 0 c 4.77,-7.359 9.9,-14.289 15.36,-20.769 v 0 c 5.2,-6.192 10.71,-11.969 16.48,-17.352"
         style="fill:#788b34;fill-opacity:1;fill-rule:nonzero;stroke:none"
         id="path238" />
      <path
         d="m 1461.92,844.68 c -6.27,0 -12.48,0.261 -18.61,0.781 -5.04,10.68 -15.9,18.07 -28.5,18.07 -7.97,0 -15.25,-2.961 -20.8,-7.851 -12.29,4.211 -24.06,9.601 -35.19,16.148 -5.77,5.383 -11.28,11.16 -16.48,17.352 4.76,-2.758 10.29,-4.328 16.18,-4.328 17.84,0 32.32,14.468 32.32,32.328 0,4.129 -0.78,8.09 -2.19,11.718 12.78,1.09 25.25,3.282 37.27,6.571 -3.78,-5.117 -6.01,-11.438 -6.01,-18.289 0,-17.032 13.8,-30.84 30.83,-30.84 17.02,0 30.82,13.808 30.82,30.84 0,14.609 -10.17,26.851 -23.82,30.011 12.71,6 24.73,13.399 35.91,22.149 15.34,1.051 27.66,13.07 29.16,28.281 18.79,22.429 33.66,50.109 43.41,82.779 5.4,-7.96 14.52,-13.18 24.86,-13.18 16.59,0 30.03,13.44 30.03,30.03 0,16.59 -13.44,30.03 -30.03,30.03 -5.7,0 -11.03,-1.59 -15.57,-4.34 1.87,12.79 3.05,26.18 3.5,40.16 3.3,-1.25 6.88,-1.93 10.61,-1.93 16.58,0 30.03,13.44 30.03,30.02 0,16.59 -13.45,30.04 -30.03,30.04 -4.63,0 -9.02,-1.05 -12.94,-2.93 -7.78,66.38 -32.75,133.07 -65.79,186.4 15.3,-3.02 30.88,-10.23 46.22,-20.85 -6.54,-5.51 -10.7,-13.76 -10.7,-22.99 0,-16.58 13.44,-30.04 30.03,-30.04 6.28,0 12.11,1.93 16.93,5.24 6.22,-9.13 12.19,-18.73 17.88,-28.73 -14.18,-3.07 -24.8,-15.68 -24.8,-30.78 0,-17.4 14.1,-31.5 31.49,-31.5 7.61,0 14.58,2.7 20.03,7.18 6.64,-16.31 12.48,-33.18 17.33,-50.34 -1.27,-3.33 -1.96,-6.93 -1.96,-10.7 0,-8.87 3.85,-16.85 9.98,-22.34 3.11,-15.4 5.38,-30.92 6.69,-46.37 -8.27,-5.35 -13.74,-14.65 -13.74,-25.23 0,-10.9 5.8,-20.43 14.47,-25.69 -0.81,-15.37 -2.54,-30.01 -5.1,-43.9 -9.89,-4.91 -16.69,-15.11 -16.69,-26.9 0,-6.209 1.88,-11.979 5.11,-16.772 -4.5,-12.699 -9.83,-24.59 -15.89,-35.617 -0.99,0.09 -1.99,0.129 -2.99,0.129 -17.86,0 -32.33,-14.469 -32.33,-32.328 0,-4.453 0.9,-8.684 2.53,-12.543 -24.36,-25.18 -54.2,-42.527 -87.36,-51.59 -5.5,6.152 -13.5,10.031 -22.4,10.031 -12.02,0 -22.4,-7.082 -27.2,-17.289 -2.15,-0.062 -4.32,-0.101 -6.5,-0.101 m 81.03,103.308 c -17.01,0 -30.83,-13.789 -30.83,-30.808 0,-17.032 13.82,-30.84 30.83,-30.84 17.02,0 30.83,13.808 30.83,30.84 0,17.019 -13.81,30.808 -30.83,30.808 m 42.27,82.792 c -16.58,0 -30.01,-13.44 -30.01,-30.02 0,-16.592 13.43,-30.041 30.01,-30.041 16.6,0 30.04,13.449 30.04,30.041 0,16.58 -13.44,30.02 -30.04,30.02 M 1326.98,909.949 c -0.81,1.25 -1.61,2.52 -2.4,3.801 -4.32,6.98 -8.32,14.32 -11.99,22.039 5.6,-1.57 11.29,-2.898 17.08,-3.988 -2.24,-4.391 -3.5,-9.36 -3.5,-14.621 0,-2.489 0.28,-4.899 0.81,-7.231"
         style="fill:#f13fa8;fill-opacity:1;fill-rule:nonzero;stroke:none"
         id="path240" />
      <path
         d="m 1576.44,1330.82 c -16.59,0 -30.03,13.46 -30.03,30.04 0,9.23 4.16,17.48 10.7,22.99 9.13,-6.31 18.18,-13.84 27.02,-22.4 -6.6,6.37 -13.31,12.15 -20.09,17.29 3.24,-5.24 6.39,-10.63 9.47,-16.11 6.83,-8.3 13.47,-17.19 19.86,-26.57 -4.82,-3.31 -10.65,-5.24 -16.93,-5.24"
         style="fill:#5593cd;fill-opacity:1;fill-rule:nonzero;stroke:none"
         id="path242" />
      <path
         d="m 1443.31,845.461 c -17.11,1.43 -33.63,4.859 -49.3,10.219 5.55,4.89 12.83,7.851 20.8,7.851 12.6,0 23.46,-7.39 28.5,-18.07"
         style="fill:#e3229b;fill-opacity:1;fill-rule:nonzero;stroke:none"
         id="path244" />
      <path
         d="m 1468.42,844.781 c 4.8,10.207 15.18,17.289 27.2,17.289 8.9,0 16.9,-3.879 22.4,-10.031 -15.85,-4.328 -32.47,-6.769 -49.6,-7.258"
         style="fill:#f9b0db;fill-opacity:1;fill-rule:nonzero;stroke:none"
         id="path246" />
      <path
         d="m 1617.94,1245.05 c -17.39,0 -31.49,14.1 -31.49,31.5 0,15.1 10.62,27.71 24.8,30.78 9.86,-17.32 18.86,-35.82 26.72,-55.1 -5.45,-4.48 -12.42,-7.18 -20.03,-7.18"
         style="fill:#e3229b;fill-opacity:1;fill-rule:nonzero;stroke:none"
         id="path248" />
      <path
         d="m 1358.52,884.852 c -5.89,0 -11.42,1.57 -16.18,4.328 v 0 c -5.46,6.48 -10.59,13.41 -15.36,20.769 v 0 c -0.53,2.332 -0.81,4.742 -0.81,7.231 0,5.261 1.26,10.23 3.5,14.621 13,-2.449 26.43,-3.68 40.18,-3.68 6.34,0 12.6,0.258 18.8,0.777 1.41,-3.628 2.19,-7.589 2.19,-11.718 0,-17.86 -14.48,-32.328 -32.32,-32.328"
         style="fill:#e3229b;fill-opacity:1;fill-rule:nonzero;stroke:none"
         id="path250" />
      <path
         d="m 1605.38,903.629 c -1.63,3.859 -2.53,8.09 -2.53,12.543 0,17.859 14.47,32.328 32.33,32.328 1,0 2,-0.039 2.99,-0.129 -9.3,-16.93 -20.33,-31.859 -32.79,-44.742"
         style="fill:#e3229b;fill-opacity:1;fill-rule:nonzero;stroke:none"
         id="path252" />
      <path
         d="m 1450.74,886.34 c -17.03,0 -30.83,13.808 -30.83,30.84 0,6.851 2.23,13.172 6.01,18.289 11,3 21.63,6.91 31.82,11.722 13.65,-3.16 23.82,-15.402 23.82,-30.011 0,-17.032 -13.8,-30.84 -30.82,-30.84"
         style="fill:#f9b0db;fill-opacity:1;fill-rule:nonzero;stroke:none"
         id="path254" />
      <path
         d="m 1542.95,886.34 c -17.01,0 -30.83,13.808 -30.83,30.84 0,17.019 13.82,30.808 30.83,30.808 17.02,0 30.83,-13.789 30.83,-30.808 0,-17.032 -13.81,-30.84 -30.83,-30.84"
         style="fill:#5593cd;fill-opacity:1;fill-rule:nonzero;stroke:none"
         id="path256" />
      <path
         d="m 1589.62,1161.17 c -3.73,0 -7.31,0.68 -10.61,1.93 0.14,4.21 0.2,8.48 0.2,12.8 0,14.03 -0.87,28.21 -2.53,42.4 3.92,1.88 8.31,2.93 12.94,2.93 16.58,0 30.03,-13.45 30.03,-30.04 0,-16.58 -13.45,-30.02 -30.03,-30.02"
         style="fill:#f9b0db;fill-opacity:1;fill-rule:nonzero;stroke:none"
         id="path258" />
      <path
         d="m 1663.32,1168.85 c -6.13,5.49 -9.98,13.47 -9.98,22.34 0,3.77 0.69,7.37 1.96,10.7 3.08,-10.92 5.77,-21.95 8.02,-33.04"
         style="fill:#5593cd;fill-opacity:1;fill-rule:nonzero;stroke:none"
         id="path260" />
      <path
         d="m 1591.08,1067.22 c -10.34,0 -19.46,5.22 -24.86,13.18 3.98,13.35 7.11,27.54 9.29,42.54 4.54,2.75 9.87,4.34 15.57,4.34 16.59,0 30.03,-13.44 30.03,-30.03 0,-16.59 -13.44,-30.03 -30.03,-30.03"
         style="fill:#f9b0db;fill-opacity:1;fill-rule:nonzero;stroke:none"
         id="path262" />
      <path
         d="m 1670.74,1071.56 c -8.67,5.26 -14.47,14.79 -14.47,25.69 0,10.58 5.47,19.88 13.74,25.23 0.84,-10.05 1.28,-20.06 1.28,-30.01 0,-7.11 -0.18,-14.09 -0.55,-20.91"
         style="fill:#5593cd;fill-opacity:1;fill-rule:nonzero;stroke:none"
         id="path264" />
      <path
         d="m 1493.65,969.34 c 10.51,8.23 20.27,17.672 29.16,28.281 -1.5,-15.211 -13.82,-27.23 -29.16,-28.281"
         style="fill:#e3229b;fill-opacity:1;fill-rule:nonzero;stroke:none"
         id="path266" />
      <path
         d="m 1585.22,970.719 c -16.58,0 -30.01,13.449 -30.01,30.041 0,16.58 13.43,30.02 30.01,30.02 16.6,0 30.04,-13.44 30.04,-30.02 0,-16.592 -13.44,-30.041 -30.04,-30.041"
         style="fill:#f9b0db;fill-opacity:1;fill-rule:nonzero;stroke:none"
         id="path268" />
      <path
         d="m 1654.06,983.988 c -3.23,4.793 -5.11,10.563 -5.11,16.772 0,11.79 6.8,21.99 16.69,26.9 -2.85,-15.49 -6.75,-30.051 -11.58,-43.672"
         style="fill:#5593cd;fill-opacity:1;fill-rule:nonzero;stroke:none"
         id="path270" />
      <path
         d="m 1495.37,818.68 c -53.53,0 -102.36,18.781 -139.38,54.851 0.03,-0.019 0.06,-0.031 0.09,-0.051 36.95,-35.761 85.59,-54.402 138.89,-54.402 66.51,0 125.79,29.012 164.14,84.121 0.13,-0.129 0.27,-0.258 0.41,-0.379 -38.36,-55.129 -97.64,-84.14 -164.15,-84.14"
         style="fill:#796732;fill-opacity:1;fill-rule:nonzero;stroke:none"
         id="path272" />
      <path
         d="m 1659.52,902.82 c -0.14,0.121 -0.28,0.25 -0.41,0.379 0.03,0.051 0.06,0.09 0.09,0.129 0.14,-0.117 0.27,-0.25 0.41,-0.379 -0.03,-0.051 -0.06,-0.09 -0.09,-0.129 m 8.58,13.371 c -0.16,0.067 -0.33,0.149 -0.49,0.231 5.9,9.957 11.19,20.668 15.78,32.09 0.05,-0.332 0.11,-0.66 0.16,-0.981 -4.51,-11.152 -9.68,-21.59 -15.45,-31.34"
         style="fill:#ec59b0;fill-opacity:1;fill-rule:nonzero;stroke:none"
         id="path274" />
      <path
         d="m 1659.61,902.949 c -0.14,0.129 -0.27,0.262 -0.41,0.379 2.93,4.211 5.73,8.582 8.41,13.094 0.16,-0.082 0.33,-0.164 0.49,-0.231 -2.7,-4.57 -5.53,-8.98 -8.49,-13.242"
         style="fill:#dc499f;fill-opacity:1;fill-rule:nonzero;stroke:none"
         id="path276" />
      <path
         d="m 1697.18,1140.77 c -0.03,0.02 -0.06,0.04 -0.09,0.05 -1.63,8.4 -3.52,16.78 -5.64,25.09 2.15,-8.33 4.07,-16.72 5.73,-25.14"
         style="fill:#ed65b5;fill-opacity:1;fill-rule:nonzero;stroke:none"
         id="path278" />
      <path
         d="m 1699.16,1129.37 c -0.64,3.82 -1.33,7.64 -2.07,11.45 0.03,-0.01 0.06,-0.03 0.09,-0.05 0.74,-3.71 1.42,-7.44 2.05,-11.16 -0.02,-0.08 -0.05,-0.16 -0.07,-0.24"
         style="fill:#ec57af;fill-opacity:1;fill-rule:nonzero;stroke:none"
         id="path280" />
      <path
         d="m 1699.02,1128.94 c -1.87,11.21 -4.22,22.41 -6.98,33.5 0.09,0.03 0.18,0.05 0.26,0.08 -0.28,1.13 -0.56,2.26 -0.85,3.39 v 0 c 2.12,-8.31 4.01,-16.69 5.64,-25.09 0.74,-3.81 1.43,-7.63 2.07,-11.45 -0.05,-0.15 -0.09,-0.29 -0.14,-0.43 m -25.22,90.73 c -7.21,18.5 -15.49,36.36 -24.58,53.19 0.02,0.09 0.03,0.18 0.04,0.28 9.15,-16.9 17.48,-34.82 24.75,-53.4 -0.07,-0.02 -0.14,-0.04 -0.21,-0.07 m -44.11,86.11 c -0.06,0.02 -0.12,0.05 -0.18,0.07 -9.03,13.67 -18.59,26.34 -28.5,37.75 0.01,0.01 0.02,0.02 0.02,0.03 9.97,-11.43 19.58,-24.13 28.66,-37.85"
         style="fill:#e92a9a;fill-opacity:1;fill-rule:nonzero;stroke:none"
         id="path282" />
      <path
         d="m 1601.01,1343.6 c -5.53,6.35 -11.16,12.32 -16.88,17.85 5.73,-5.52 11.37,-11.47 16.9,-17.82 0,-0.01 -0.01,-0.02 -0.02,-0.03"
         style="fill:#596cb3;fill-opacity:1;fill-rule:nonzero;stroke:none"
         id="path284" />
      <path
         d="m 1649.22,1272.86 c -6.21,11.51 -12.8,22.54 -19.71,32.99 0.06,-0.02 0.12,-0.05 0.18,-0.07 6.85,-10.34 13.4,-21.26 19.57,-32.64 -0.01,-0.1 -0.02,-0.19 -0.04,-0.28"
         style="fill:#dc1792;fill-opacity:1;fill-rule:nonzero;stroke:none"
         id="path286" />
      <path
         d="m 1692.04,1162.44 c -4.86,19.5 -11.02,38.69 -18.24,57.23 0.07,0.03 0.14,0.05 0.21,0.07 6.82,-17.46 12.7,-35.5 17.44,-53.83 0.29,-1.13 0.57,-2.26 0.85,-3.39 -0.08,-0.03 -0.17,-0.05 -0.26,-0.08"
         style="fill:#596cb3;fill-opacity:1;fill-rule:nonzero;stroke:none"
         id="path288" />
      <path
         d="m 1494.97,819.078 c -53.3,0 -101.94,18.641 -138.89,54.402 0.91,-0.562 1.82,-1.109 2.74,-1.652 9.21,-8.566 19.11,-16.109 29.6,-22.59 v 0 c 17.59,-10.859 36.83,-18.758 57.23,-23.59 v 0 c 7.12,-1.679 14.39,-2.988 21.77,-3.929 v 0 c 9.04,-1.141 18.25,-1.711 27.62,-1.711 9.79,0 19.42,0.633 28.85,1.871 v 0 c 7.84,1.039 15.54,2.5 23.07,4.391 v 0 c 19.3,4.832 37.54,12.429 54.27,22.71 v 0 c 15.78,9.692 30.23,21.77 43,36.149 v 0 c 5.12,5.769 9.97,11.902 14.53,18.41 0.11,-0.109 0.24,-0.23 0.35,-0.34 -38.35,-55.109 -97.63,-84.121 -164.14,-84.121"
         style="fill:#7b5231;fill-opacity:1;fill-rule:nonzero;stroke:none"
         id="path290" />
      <path
         d="m 1659.11,903.199 c -0.11,0.11 -0.24,0.231 -0.35,0.34 0.03,0.039 0.07,0.09 0.09,0.133 0.12,-0.113 0.24,-0.231 0.35,-0.344 -0.03,-0.039 -0.06,-0.078 -0.09,-0.129 m 8.5,13.223 c -0.13,0.058 -0.26,0.117 -0.39,0.18 0.1,0.148 0.18,0.296 0.28,0.457 v 0 c 5.91,9.941 11.2,20.613 15.8,32 0.03,-0.18 0.06,-0.368 0.09,-0.547 -4.59,-11.422 -9.88,-22.133 -15.78,-32.09"
         style="fill:#ea3da3;fill-opacity:1;fill-rule:nonzero;stroke:none"
         id="path292" />
      <path
         d="m 1659.2,903.328 c -0.11,0.113 -0.23,0.231 -0.35,0.344 2.92,4.156 5.71,8.469 8.37,12.93 0.13,-0.063 0.26,-0.122 0.39,-0.18 -2.68,-4.512 -5.48,-8.883 -8.41,-13.094"
         style="fill:#da3294;fill-opacity:1;fill-rule:nonzero;stroke:none"
         id="path294" />
      <path
         d="m 1467.42,821.719 c -7.38,0.941 -14.65,2.25 -21.77,3.929 0.43,2.071 0.65,4.204 0.65,6.391 0,4.801 -1.07,9.352 -2.99,13.422 6.13,-0.52 12.34,-0.781 18.61,-0.781 2.18,0 4.35,0.039 6.5,0.101 -1.81,-3.871 -2.82,-8.179 -2.82,-12.742 0,-3.621 0.64,-7.098 1.82,-10.32 m 56.47,0.16 c 1.14,3.18 1.76,6.601 1.76,10.16 0,7.68 -2.88,14.691 -7.63,20 33.16,9.063 63,26.41 87.36,51.59 4.9,-11.617 16.39,-19.777 29.8,-19.777 3.14,0 6.18,0.437 9.05,1.277 -12.77,-14.379 -27.22,-26.457 -43,-36.149 -5.41,7.899 -14.5,13.09 -24.79,13.09 -16.59,0 -30.03,-13.449 -30.03,-30.031 0,-1.969 0.19,-3.898 0.55,-5.769 -7.53,-1.891 -15.23,-3.352 -23.07,-4.391 m -135.47,27.359 c -10.49,6.481 -20.39,14.024 -29.6,22.59 11.13,-6.547 22.9,-11.937 35.19,-16.148 -2.14,-1.879 -4.02,-4.051 -5.59,-6.442 m 279.08,67.821 c -0.44,16.441 -13.17,29.82 -29.33,31.312 6.06,11.027 11.39,22.918 15.89,35.617 5.4,-8 14.55,-13.269 24.93,-13.269 0.52,0 1.04,0.019 1.56,0.043 0.69,-7.422 1.61,-14.653 2.75,-21.703 -4.6,-11.387 -9.89,-22.059 -15.8,-32 m -1.86,110.601 c 2.56,13.89 4.29,28.53 5.1,43.9 3.99,-2.42 8.58,-3.94 13.5,-4.27 -2,-12.16 -3.46,-24.37 -4.33,-36.53 -0.3,0.01 -0.61,0.02 -0.92,0.02 -4.8,0 -9.33,-1.12 -13.35,-3.12 m 4.37,94.82 c -1.31,15.45 -3.58,30.97 -6.69,46.37 5.31,-4.78 12.34,-7.68 20.05,-7.68 3.01,0 5.92,0.44 8.67,1.27 2.76,-11.09 5.11,-22.29 6.98,-33.5 -0.41,-1.31 -0.82,-2.63 -1.22,-3.94 -3.54,1.47 -7.43,2.28 -11.5,2.28 -6.01,0 -11.6,-1.77 -16.29,-4.8 m -14.71,79.41 c -4.85,17.16 -10.69,34.03 -17.33,50.34 6.11,5.04 10.29,12.35 11.25,20.63 9.09,-16.83 17.37,-34.69 24.58,-53.19 -8.51,-2.86 -15.31,-9.43 -18.5,-17.78 m -25.79,103.96 c -3.58,1.42 -7.48,2.19 -11.57,2.19 -2.29,0 -4.53,-0.24 -6.69,-0.71 -5.69,10 -11.66,19.6 -17.88,28.73 2.97,2.03 5.56,4.59 7.64,7.54 9.91,-11.41 19.47,-24.08 28.5,-37.75"
         style="fill:#e81d95;fill-opacity:1;fill-rule:nonzero;stroke:none"
         id="path296" />
      <path
         d="m 1593.37,1336.06 c -6.39,9.38 -13.03,18.27 -19.86,26.57 -3.08,5.48 -6.23,10.87 -9.47,16.11 6.78,-5.14 13.49,-10.92 20.09,-17.29 5.72,-5.53 11.35,-11.5 16.88,-17.85 -2.08,-2.95 -4.67,-5.51 -7.64,-7.54"
         style="fill:#5c55a5;fill-opacity:1;fill-rule:nonzero;stroke:none"
         id="path298" />
      <path
         d="m 1445.65,825.648 c -20.4,4.832 -39.64,12.731 -57.23,23.59 v 0 c 1.57,2.391 3.45,4.563 5.59,6.442 15.67,-5.36 32.19,-8.789 49.3,-10.219 1.92,-4.07 2.99,-8.621 2.99,-13.422 0,-2.187 -0.22,-4.32 -0.65,-6.391 v 0"
         style="fill:#dc118e;fill-opacity:1;fill-rule:nonzero;stroke:none"
         id="path300" />
      <path
         d="m 1495.04,820.008 c -9.37,0 -18.58,0.57 -27.62,1.711 v 0 c -1.18,3.222 -1.82,6.699 -1.82,10.32 0,4.563 1.01,8.871 2.82,12.742 17.13,0.489 33.75,2.93 49.6,7.258 4.75,-5.309 7.63,-12.32 7.63,-20 0,-3.559 -0.62,-6.98 -1.76,-10.16 v 0 c -9.43,-1.238 -19.06,-1.871 -28.85,-1.871"
         style="fill:#ec51ac;fill-opacity:1;fill-rule:nonzero;stroke:none"
         id="path302" />
      <path
         d="m 1546.96,826.27 v 0 c -0.36,1.871 -0.55,3.8 -0.55,5.769 0,16.582 13.44,30.031 30.03,30.031 10.29,0 19.38,-5.191 24.79,-13.09 v 0 c -16.73,-10.281 -34.97,-17.878 -54.27,-22.71"
         style="fill:#5c55a5;fill-opacity:1;fill-rule:nonzero;stroke:none"
         id="path304" />
      <path
         d="m 1637.97,1252.23 c -7.86,19.28 -16.86,37.78 -26.72,55.1 2.16,0.47 4.4,0.71 6.69,0.71 4.09,0 7.99,-0.77 11.57,-2.19 6.91,-10.45 13.5,-21.48 19.71,-32.99 -0.96,-8.28 -5.14,-15.59 -11.25,-20.63"
         style="fill:#dc118e;fill-opacity:1;fill-rule:nonzero;stroke:none"
         id="path306" />
      <path
         d="m 1635.18,883.852 c -13.41,0 -24.9,8.16 -29.8,19.777 12.46,12.883 23.49,27.812 32.79,44.742 16.16,-1.492 28.89,-14.871 29.33,-31.312 v 0 c -0.1,-0.161 -0.18,-0.309 -0.28,-0.457 -2.66,-4.461 -5.45,-8.774 -8.37,-12.93 -0.02,-0.043 -0.06,-0.094 -0.09,-0.133 -4.56,-6.508 -9.41,-12.641 -14.53,-18.41 v 0 c -2.87,-0.84 -5.91,-1.277 -9.05,-1.277"
         style="fill:#dc118e;fill-opacity:1;fill-rule:nonzero;stroke:none"
         id="path308" />
      <path
         d="m 1683.37,1161.17 c -7.71,0 -14.74,2.9 -20.05,7.68 -2.25,11.09 -4.94,22.12 -8.02,33.04 3.19,8.35 9.99,14.92 18.5,17.78 7.22,-18.54 13.38,-37.73 18.24,-57.23 -2.75,-0.83 -5.66,-1.27 -8.67,-1.27"
         style="fill:#5c55a5;fill-opacity:1;fill-rule:nonzero;stroke:none"
         id="path310" />
      <path
         d="m 1684.24,1067.29 c -4.92,0.33 -9.51,1.85 -13.5,4.27 0.37,6.82 0.55,13.8 0.55,20.91 0,9.95 -0.44,19.96 -1.28,30.01 4.69,3.03 10.28,4.8 16.29,4.8 4.07,0 7.96,-0.81 11.5,-2.28 -5.77,-18.89 -10.36,-38.24 -13.56,-57.71"
         style="fill:#5c55a5;fill-opacity:1;fill-rule:nonzero;stroke:none"
         id="path312" />
      <path
         d="m 1678.99,970.719 c -10.38,0 -19.53,5.269 -24.93,13.269 4.83,13.621 8.73,28.182 11.58,43.672 4.02,2 8.55,3.12 13.35,3.12 0.31,0 0.62,-0.01 0.92,-0.02 -0.61,-8.59 -0.93,-17.16 -0.93,-25.68 0,-11.85 0.54,-23.291 1.57,-34.318 -0.52,-0.024 -1.04,-0.043 -1.56,-0.043"
         style="fill:#5c55a5;fill-opacity:1;fill-rule:nonzero;stroke:none"
         id="path314" />
      <path
         d="m 1322.74,1164.54 c 0.01,0.1 0.02,0.2 0.03,0.31 0.03,0.01 0.05,0.02 0.08,0.04 -0.04,-0.12 -0.07,-0.23 -0.11,-0.35 m 14.58,34.6 c -0.99,3.62 -2.64,6.97 -4.81,9.91 0.14,0.42 0.28,0.84 0.42,1.26 4.07,12.18 9,24.09 14.54,35.73 0.31,-0.01 0.62,-0.01 0.93,-0.01 17.39,0 31.5,14.1 31.5,31.5 0,6.34 -1.88,12.25 -5.11,17.19 0.14,0.22 0.29,0.45 0.43,0.67 4.33,6.69 8.83,13.29 13.51,19.81 2.33,3.26 4.72,6.5 7.16,9.73 l 3.72,4.81 c 0.68,0.85 1.33,1.67 2.01,2.52 4.02,-1.85 8.48,-2.89 13.19,-2.89 6.67,0 12.85,2.07 17.94,5.6 5.68,-6.86 5.79,-17 -0.17,-24.04 -0.84,-0.99 -1.84,-1.91 -2.82,-2.68 -1.23,-0.96 -2.71,-2.19 -4.08,-3.35 l -0.25,-0.22 c -5.25,-2.48 -9.66,-6.44 -12.71,-11.34 -5.33,-4.95 -10.55,-10.05 -15.66,-15.3 -10.54,-10.77 -20.59,-22.07 -29.97,-33.95 -9.37,-11.89 -18.07,-24.37 -25.68,-37.57 -1.4,-2.43 -2.76,-4.89 -4.09,-7.38"
         style="fill:#f799d1;fill-opacity:1;fill-rule:nonzero;stroke:none"
         id="path316" />
      <path
         d="m 1414.81,1329.37 c -4.71,0 -9.17,1.04 -13.19,2.89 0.63,0.78 1.29,1.57 2.01,2.42 l 0.42,0.5 c 3.7,4.35 8.97,6.59 14.27,6.59 4.29,0 8.59,-1.46 12.11,-4.45 0.85,-0.73 1.63,-1.51 2.32,-2.35 -5.09,-3.53 -11.27,-5.6 -17.94,-5.6"
         style="fill:#ed6cbd;fill-opacity:1;fill-rule:nonzero;stroke:none"
         id="path318" />
      <path
         d="m 1348.4,1246.03 c -0.31,0 -0.62,0 -0.93,0.01 1.28,2.68 2.59,5.35 3.93,8.01 7.05,13.93 14.9,27.47 23.39,40.67 3.23,-4.94 5.11,-10.85 5.11,-17.19 0,-17.4 -14.11,-31.5 -31.5,-31.5"
         style="fill:#ed6cbd;fill-opacity:1;fill-rule:nonzero;stroke:none"
         id="path320" />
      <path
         d="m 1412.72,1293.34 c 3.05,4.9 7.46,8.86 12.71,11.34 l -3.94,-3.4 c -2.78,-2.45 -5.55,-4.95 -8.3,-7.5 -0.15,-0.14 -0.31,-0.29 -0.47,-0.44"
         style="fill:#ffffff;fill-opacity:1;fill-rule:nonzero;stroke:none"
         id="path322" />
      <path
         d="m 1322.77,1164.85 c 1.47,14.91 4.98,29.75 9.74,44.2 2.17,-2.94 3.82,-6.29 4.81,-9.91 -5.79,-10.89 -10.78,-22.28 -14.47,-34.25 -0.03,-0.02 -0.05,-0.03 -0.08,-0.04"
         style="fill:#ffffff;fill-opacity:1;fill-rule:nonzero;stroke:none"
         id="path324" />
      <path
         d="m 1454.28,1338.69 c -4.88,0 -9.52,1.83 -12.79,5.43 3.05,4.85 4.81,10.59 4.81,16.74 0,3.49 -0.56,6.85 -1.61,9.99 0.2,0.18 0.4,0.35 0.61,0.52 4.07,3.3 8.89,4.93 13.5,4.93 3.45,0 6.79,-0.92 9.61,-2.73 -1.81,-3.86 -2.81,-8.16 -2.81,-12.71 0,-5.62 1.54,-10.87 4.23,-15.37 -0.63,-0.65 -1.31,-1.27 -2.03,-1.86 -4.08,-3.3 -8.9,-4.94 -13.52,-4.94"
         style="fill:#f799d1;fill-opacity:1;fill-rule:nonzero;stroke:none"
         id="path326" />
      <path
         d="m 1441.49,1344.12 c -0.21,0.22 -0.4,0.45 -0.6,0.69 -6.06,7.46 -4.32,18.98 3.8,26.04 1.05,-3.14 1.61,-6.5 1.61,-9.99 0,-6.15 -1.76,-11.89 -4.81,-16.74"
         style="fill:#ed6cbd;fill-opacity:1;fill-rule:nonzero;stroke:none"
         id="path328" />
      <path
         d="m 1469.83,1345.49 c -2.69,4.5 -4.23,9.75 -4.23,15.37 0,4.55 1,8.85 2.81,12.71 1.41,-0.9 2.69,-2.03 3.79,-3.38 5.68,-7.02 4.5,-17.6 -2.37,-24.7"
         style="fill:#ffffff;fill-opacity:1;fill-rule:nonzero;stroke:none"
         id="path330" />
      <path
         d="m 2857.97,1052.41 c 0,-160.101 -93.75,-247.769 -209.38,-247.769 -115.64,0 -209.38,87.668 -209.38,247.769 0,160.11 107.79,339.46 209.38,339.46 95.39,0 209.38,-179.35 209.38,-339.46"
         style="fill:#fab220;fill-opacity:1;fill-rule:nonzero;stroke:none"
         id="path332" />
      <g
         id="g334">
        <g
           id="g336"
           clip-path="url(#clipPath340)">
          <path
             d="m 2475.27,781.82 h 12.6523 v 641.66 H 2475.27 Z"
             style="fill:#e42fa1;fill-opacity:1;fill-rule:nonzero;stroke:none"
             id="path342" />
          <path
             d="m 2542.07,781.82 h 12.6484 v 641.66 H 2542.07 Z"
             style="fill:#4dc5ea;fill-opacity:1;fill-rule:nonzero;stroke:none"
             id="path344" />
          <path
             d="m 2608.86,781.82 h 12.6602 v 641.66 H 2608.86 Z"
             style="fill:#ffffff;fill-opacity:1;fill-rule:nonzero;stroke:none"
             id="path346" />
          <path
             d="m 2675.66,781.82 h 12.6484 v 641.66 H 2675.66 Z"
             style="fill:#e42fa1;fill-opacity:1;fill-rule:nonzero;stroke:none"
             id="path348" />
          <path
             d="m 2742.46,781.82 h 12.6484 v 641.66 H 2742.46 Z"
             style="fill:#4dc5ea;fill-opacity:1;fill-rule:nonzero;stroke:none"
             id="path350" />
          <path
             d="m 2809.25,781.82 h 12.6484 v 641.66 H 2809.25 Z"
             style="fill:#ffffff;fill-opacity:1;fill-rule:nonzero;stroke:none"
             id="path352" />
          <path
             d="m 2532.52,1224.37 c 0,-7.83 -6.33,-14.16 -14.17,-14.16 -7.82,0 -14.17,6.33 -14.17,14.16 0,7.83 6.35,14.17 14.17,14.17 7.84,0 14.17,-6.34 14.17,-14.17"
             style="fill:#ffffff;fill-opacity:1;fill-rule:nonzero;stroke:none"
             id="path354" />
          <path
             d="m 2532.52,1149.75 c 0,-7.82 -6.33,-14.17 -14.17,-14.17 -7.82,0 -14.17,6.35 -14.17,14.17 0,7.83 6.35,14.17 14.17,14.17 7.84,0 14.17,-6.34 14.17,-14.17"
             style="fill:#e42fa1;fill-opacity:1;fill-rule:nonzero;stroke:none"
             id="path356" />
          <path
             d="m 2532.52,1075.12 c 0,-7.81 -6.33,-14.16 -14.17,-14.16 -7.82,0 -14.17,6.35 -14.17,14.16 0,7.84 6.35,14.18 14.17,14.18 7.84,0 14.17,-6.34 14.17,-14.18"
             style="fill:#4dc5ea;fill-opacity:1;fill-rule:nonzero;stroke:none"
             id="path358" />
          <path
             d="m 2532.52,1298.99 c 0,-7.83 -6.33,-14.17 -14.17,-14.17 -7.82,0 -14.17,6.34 -14.17,14.17 0,7.83 6.35,14.16 14.17,14.16 7.84,0 14.17,-6.33 14.17,-14.16"
             style="fill:#4dc5ea;fill-opacity:1;fill-rule:nonzero;stroke:none"
             id="path360" />
          <path
             d="m 2532.52,1000.52 c 0,-7.829 -6.33,-14.168 -14.17,-14.168 -7.82,0 -14.17,6.339 -14.17,14.168 0,7.82 6.35,14.17 14.17,14.17 7.84,0 14.17,-6.35 14.17,-14.17"
             style="fill:#ffffff;fill-opacity:1;fill-rule:nonzero;stroke:none"
             id="path362" />
          <path
             d="m 2532.52,851.281 c 0,-7.832 -6.33,-14.172 -14.17,-14.172 -7.82,0 -14.17,6.34 -14.17,14.172 0,7.809 6.35,14.168 14.17,14.168 7.84,0 14.17,-6.359 14.17,-14.168"
             style="fill:#ffffff;fill-opacity:1;fill-rule:nonzero;stroke:none"
             id="path364" />
          <path
             d="m 2532.52,925.898 c 0,-7.828 -6.33,-14.168 -14.17,-14.168 -7.82,0 -14.17,6.34 -14.17,14.168 0,7.821 6.35,14.161 14.17,14.161 7.84,0 14.17,-6.34 14.17,-14.161"
             style="fill:#e42fa1;fill-opacity:1;fill-rule:nonzero;stroke:none"
             id="path366" />
          <path
             d="m 2795.66,1224.37 c 0,-7.83 -6.34,-14.16 -14.17,-14.16 -7.82,0 -14.17,6.33 -14.17,14.16 0,7.83 6.35,14.17 14.17,14.17 7.83,0 14.17,-6.34 14.17,-14.17"
             style="fill:#ffffff;fill-opacity:1;fill-rule:nonzero;stroke:none"
             id="path368" />
          <path
             d="m 2795.66,1149.75 c 0,-7.82 -6.34,-14.17 -14.17,-14.17 -7.82,0 -14.17,6.35 -14.17,14.17 0,7.83 6.35,14.17 14.17,14.17 7.83,0 14.17,-6.34 14.17,-14.17"
             style="fill:#e42fa1;fill-opacity:1;fill-rule:nonzero;stroke:none"
             id="path370" />
          <path
             d="m 2795.66,1075.12 c 0,-7.81 -6.34,-14.16 -14.17,-14.16 -7.82,0 -14.17,6.35 -14.17,14.16 0,7.84 6.35,14.18 14.17,14.18 7.83,0 14.17,-6.34 14.17,-14.18"
             style="fill:#4dc5ea;fill-opacity:1;fill-rule:nonzero;stroke:none"
             id="path372" />
          <path
             d="m 2795.66,1298.99 c 0,-7.83 -6.34,-14.17 -14.17,-14.17 -7.82,0 -14.17,6.34 -14.17,14.17 0,7.83 6.35,14.16 14.17,14.16 7.83,0 14.17,-6.33 14.17,-14.16"
             style="fill:#4dc5ea;fill-opacity:1;fill-rule:nonzero;stroke:none"
             id="path374" />
          <path
             d="m 2795.66,1000.52 c 0,-7.829 -6.34,-14.168 -14.17,-14.168 -7.82,0 -14.17,6.339 -14.17,14.168 0,7.82 6.35,14.17 14.17,14.17 7.83,0 14.17,-6.35 14.17,-14.17"
             style="fill:#ffffff;fill-opacity:1;fill-rule:nonzero;stroke:none"
             id="path376" />
          <path
             d="m 2795.66,851.281 c 0,-7.832 -6.34,-14.172 -14.17,-14.172 -7.82,0 -14.17,6.34 -14.17,14.172 0,7.809 6.35,14.168 14.17,14.168 7.83,0 14.17,-6.359 14.17,-14.168"
             style="fill:#ffffff;fill-opacity:1;fill-rule:nonzero;stroke:none"
             id="path378" />
          <path
             d="m 2795.66,925.898 c 0,-7.828 -6.34,-14.168 -14.17,-14.168 -7.82,0 -14.17,6.34 -14.17,14.168 0,7.821 6.35,14.161 14.17,14.161 7.83,0 14.17,-6.34 14.17,-14.161"
             style="fill:#e42fa1;fill-opacity:1;fill-rule:nonzero;stroke:none"
             id="path380" />
          <path
             d="m 2662.04,1401.98 c 0,-7.83 -6.35,-14.17 -14.18,-14.17 -7.82,0 -14.17,6.34 -14.17,14.17 0,7.82 6.35,14.15 14.17,14.15 7.83,0 14.18,-6.33 14.18,-14.15"
             style="fill:#ffffff;fill-opacity:1;fill-rule:nonzero;stroke:none"
             id="path382" />
          <path
             d="m 2662.04,1327.36 c 0,-7.83 -6.35,-14.18 -14.18,-14.18 -7.82,0 -14.17,6.35 -14.17,14.18 0,7.82 6.35,14.16 14.17,14.16 7.83,0 14.18,-6.34 14.18,-14.16"
             style="fill:#e42fa1;fill-opacity:1;fill-rule:nonzero;stroke:none"
             id="path384" />
          <path
             d="m 2662.04,1252.74 c 0,-7.83 -6.35,-14.17 -14.18,-14.17 -7.82,0 -14.17,6.34 -14.17,14.17 0,7.82 6.35,14.17 14.17,14.17 7.83,0 14.18,-6.35 14.18,-14.17"
             style="fill:#4dc5ea;fill-opacity:1;fill-rule:nonzero;stroke:none"
             id="path386" />
          <path
             d="m 2662.04,1178.11 c 0,-7.81 -6.35,-14.15 -14.18,-14.15 -7.82,0 -14.17,6.34 -14.17,14.15 0,7.82 6.35,14.18 14.17,14.18 7.83,0 14.18,-6.36 14.18,-14.18"
             style="fill:#ffffff;fill-opacity:1;fill-rule:nonzero;stroke:none"
             id="path388" />
          <path
             d="m 2662.04,1028.87 c 0,-7.81 -6.35,-14.16 -14.18,-14.16 -7.82,0 -14.17,6.35 -14.17,14.16 0,7.83 6.35,14.17 14.17,14.17 7.83,0 14.18,-6.34 14.18,-14.17"
             style="fill:#ffffff;fill-opacity:1;fill-rule:nonzero;stroke:none"
             id="path390" />
          <path
             d="m 2662.04,1103.49 c 0,-7.82 -6.35,-14.16 -14.18,-14.16 -7.82,0 -14.17,6.34 -14.17,14.16 0,7.84 6.35,14.17 14.17,14.17 7.83,0 14.18,-6.33 14.18,-14.17"
             style="fill:#e42fa1;fill-opacity:1;fill-rule:nonzero;stroke:none"
             id="path392" />
          <path
             d="m 2663.04,955.18 c 0,-7.821 -6.35,-14.16 -14.17,-14.16 -7.82,0 -14.15,6.339 -14.15,14.16 0,7.82 6.33,14.179 14.15,14.179 7.82,0 14.17,-6.359 14.17,-14.179"
             style="fill:#4dc5ea;fill-opacity:1;fill-rule:nonzero;stroke:none"
             id="path394" />
          <path
             d="m 2663.04,880.57 c 0,-7.832 -6.35,-14.179 -14.17,-14.179 -7.82,0 -14.15,6.347 -14.15,14.179 0,7.828 6.33,14.16 14.15,14.16 7.82,0 14.17,-6.332 14.17,-14.16"
             style="fill:#ffffff;fill-opacity:1;fill-rule:nonzero;stroke:none"
             id="path396" />
          <path
             d="m 2663.04,805.949 c 0,-7.82 -6.35,-14.168 -14.17,-14.168 -7.82,0 -14.15,6.348 -14.15,14.168 0,7.821 6.33,14.16 14.15,14.16 7.82,0 14.17,-6.339 14.17,-14.16"
             style="fill:#e42fa1;fill-opacity:1;fill-rule:nonzero;stroke:none"
             id="path398" />
        </g>
      </g>
      <path
         d="m 2510.17,858.559 c -0.2,0.113 -0.4,0.23 -0.59,0.351 -11.77,11.391 -22.35,24.508 -31.52,39.32 0.04,0.032 0.08,0.059 0.12,0.079 3.09,-4.981 6.34,-9.778 9.74,-14.387 v 0 c 6.17,-8.352 12.83,-16.051 19.95,-23.121 v 0 c 0.76,-0.75 1.52,-1.5 2.3,-2.242"
         style="fill:#74b133;fill-opacity:1;fill-rule:nonzero;stroke:none"
         id="path400" />
      <path
         d="m 2478.06,898.23 c -0.03,0.051 -0.05,0.09 -0.08,0.129 0.04,0.032 0.08,0.051 0.12,0.082 0.02,-0.043 0.05,-0.089 0.08,-0.132 -0.04,-0.02 -0.08,-0.047 -0.12,-0.079 m -8.68,15.348 c -1.32,2.563 -2.6,5.172 -3.84,7.813 0.06,-0.012 0.11,-0.032 0.17,-0.051 1.23,-2.602 2.49,-5.18 3.79,-7.699 -0.04,-0.02 -0.08,-0.039 -0.12,-0.063"
         style="fill:#fab8c1;fill-opacity:1;fill-rule:nonzero;stroke:none"
         id="path402" />
      <path
         d="m 2477.98,898.359 c -3.02,4.891 -5.89,9.969 -8.6,15.219 0.04,0.024 0.08,0.043 0.12,0.063 1.85,-3.582 3.77,-7.082 5.77,-10.493 v 0 c 0.93,-1.597 1.87,-3.16 2.83,-4.707 -0.04,-0.031 -0.08,-0.05 -0.12,-0.082"
         style="fill:#e795ab;fill-opacity:1;fill-rule:nonzero;stroke:none"
         id="path404" />
      <path
         d="m 2621.52,830.23 v 107.661 c 5.31,2.918 10.49,6.089 15.52,9.519 2.53,-3.851 6.88,-6.39 11.83,-6.39 7.82,0 14.17,6.339 14.17,14.16 0,3.8 -1.5,7.261 -3.94,9.808 5.81,5.371 11.33,11.141 16.56,17.332 V 838.68 c -17.22,-5.11 -35.37,-7.95 -54.14,-8.45 m 27.35,64.5 c -7.82,0 -14.15,-6.332 -14.15,-14.16 0,-7.832 6.33,-14.179 14.15,-14.179 7.82,0 14.17,6.347 14.17,14.179 0,7.828 -6.35,14.16 -14.17,14.16 m -40.01,-64.492 c -18.77,0.543 -36.93,3.434 -54.14,8.582 v 76.969 c 19,2.75 37.17,8.031 54.14,15.75 V 830.238 m 79.45,12.672 v 156.012 c 27.81,40.578 44.39,95.088 44.39,162.418 0,62.63 -17.45,128.2 -44.39,184.83 v 36.02 c 17.06,-7.9 34.12,-20.39 50.5,-36.46 -6.99,6.83 -14.1,13.01 -21.29,18.45 3.25,-5.24 6.41,-10.62 9.48,-16.1 5.28,-6.41 10.44,-13.17 15.46,-20.25 V 873.969 c -16.33,-13.367 -34.55,-23.758 -54.15,-31.059 m -146.24,0.168 c -3.42,1.281 -6.81,2.672 -10.14,4.141 0.38,1.281 0.59,2.652 0.59,4.062 0,7.809 -6.33,14.168 -14.17,14.168 -4.15,0 -7.89,-1.801 -10.48,-4.648 -7.12,7.07 -13.78,14.769 -19.95,23.121 v 32.488 c 7.5,-1.23 15.13,-2.07 22.88,-2.5 2.18,-1.379 4.78,-2.18 7.55,-2.18 2.55,0 4.94,0.668 7,1.84 5.63,0.051 11.21,0.309 16.72,0.77 v -71.262 m 213.04,42.223 v 423.579 c 15.06,-23.97 28.48,-50.71 39.43,-78.96 -2.16,5.07 -7.19,8.62 -13.05,8.62 -7.82,0 -14.17,-6.34 -14.17,-14.17 0,-7.83 6.35,-14.16 14.17,-14.16 7.83,0 14.17,6.33 14.17,14.16 0,1.63 -0.27,3.2 -0.78,4.66 5.44,-14.13 10.27,-28.65 14.37,-43.37 V 974.398 c -4.69,-14.097 -10.37,-27.238 -16.93,-39.359 -2.6,3.07 -6.49,5.02 -10.83,5.02 -7.82,0 -14.17,-6.34 -14.17,-14.161 0,-6.636 4.57,-12.218 10.73,-13.75 -7,-9.808 -14.67,-18.75 -22.94,-26.847 m 26.38,129.389 c -7.82,0 -14.17,-6.35 -14.17,-14.17 0,-7.829 6.35,-14.168 14.17,-14.168 7.83,0 14.17,6.339 14.17,14.168 0,7.82 -6.34,14.17 -14.17,14.17 m 0,74.61 c -7.82,0 -14.17,-6.34 -14.17,-14.18 0,-7.81 6.35,-14.16 14.17,-14.16 7.83,0 14.17,6.35 14.17,14.16 0,7.84 -6.34,14.18 -14.17,14.18 m 0,74.62 c -7.82,0 -14.17,-6.34 -14.17,-14.17 0,-7.82 6.35,-14.17 14.17,-14.17 7.83,0 14.17,6.35 14.17,14.17 0,7.83 -6.34,14.17 -14.17,14.17 M 2475.27,903.148 c -2,3.411 -3.92,6.911 -5.77,10.493 -1.3,2.519 -2.56,5.097 -3.79,7.699 3.16,-0.891 6.34,-1.699 9.56,-2.442 v -15.75 m 346.63,127.842 v 92.15 c 1.88,-15.13 2.88,-30.26 2.88,-45.22 0,-16.41 -0.99,-32.06 -2.88,-46.93 m -146.24,339.85 c -3.64,6.6 -7.4,13.05 -11.28,19.3 3.75,-0.74 7.51,-1.73 11.28,-2.96 v -16.34"
         style="fill:#f9aa1d;fill-opacity:1;fill-rule:nonzero;stroke:none"
         id="path406" />
      <path
         d="m 2487.92,883.922 c -3.4,4.609 -6.65,9.406 -9.74,14.387 -0.03,0.043 -0.06,0.089 -0.08,0.132 -0.96,1.547 -1.9,3.11 -2.83,4.707 v 0 15.75 c 4.17,-0.957 8.39,-1.789 12.65,-2.488 v -32.488"
         style="fill:#e4308e;fill-opacity:1;fill-rule:nonzero;stroke:none"
         id="path408" />
      <path
         d="m 2554.72,838.82 c -4.28,1.282 -8.49,2.7 -12.65,4.258 v 71.262 c 4.26,0.359 8.47,0.84 12.65,1.449 V 838.82"
         style="fill:#4fbccd;fill-opacity:1;fill-rule:nonzero;stroke:none"
         id="path410" />
      <path
         d="m 2615.4,830.141 c -2.19,0 -4.37,0.039 -6.54,0.097 v 101.301 c 4.3,1.961 8.52,4.082 12.66,6.352 V 830.23 c -2.03,-0.058 -4.07,-0.089 -6.12,-0.089"
         style="fill:#fef0d6;fill-opacity:1;fill-rule:nonzero;stroke:none"
         id="path412" />
      <path
         d="m 2675.66,838.68 v 143.64 c 4.44,5.239 8.66,10.782 12.65,16.602 V 842.91 c -4.16,-1.551 -8.37,-2.961 -12.65,-4.23 m 12.65,507.49 c -4.01,8.44 -8.24,16.67 -12.65,24.67 v 16.34 c 4.21,-1.37 8.43,-3.04 12.65,-4.99 v -36.02"
         style="fill:#e4308e;fill-opacity:1;fill-rule:nonzero;stroke:none"
         id="path414" />
      <path
         d="m 2742.46,873.969 v 453.861 c 4.33,-6.09 8.55,-12.42 12.65,-18.95 V 885.301 c -4.07,-3.981 -8.3,-7.77 -12.65,-11.332"
         style="fill:#4fbccd;fill-opacity:1;fill-rule:nonzero;stroke:none"
         id="path416" />
      <path
         d="m 2809.25,974.398 v 211.262 c 5.73,-20.56 10.04,-41.55 12.65,-62.52 v -92.15 c -2.59,-20.33 -6.87,-39.201 -12.65,-56.592"
         style="fill:#fef0d6;fill-opacity:1;fill-rule:nonzero;stroke:none"
         id="path418" />
      <path
         d="m 2531.93,847.219 c -7.49,3.312 -14.76,7.09 -21.76,11.34 -0.78,0.742 -1.54,1.492 -2.3,2.242 v 0 c 2.59,2.847 6.33,4.648 10.48,4.648 7.84,0 14.17,-6.359 14.17,-14.168 0,-1.41 -0.21,-2.781 -0.59,-4.062"
         style="fill:#fef0d6;fill-opacity:1;fill-rule:nonzero;stroke:none"
         id="path420" />
      <path
         d="m 2518.35,911.73 c -2.77,0 -5.37,0.801 -7.55,2.18 4.14,-0.23 8.32,-0.351 12.53,-0.351 0.68,0 1.35,0 2.02,0.011 -2.06,-1.172 -4.45,-1.84 -7,-1.84"
         style="fill:#e4308e;fill-opacity:1;fill-rule:nonzero;stroke:none"
         id="path422" />
      <path
         d="m 2781.49,1210.21 c -7.82,0 -14.17,6.33 -14.17,14.16 0,7.83 6.35,14.17 14.17,14.17 5.86,0 10.89,-3.55 13.05,-8.62 0.11,-0.3 0.23,-0.59 0.34,-0.89 0.51,-1.46 0.78,-3.03 0.78,-4.66 0,-7.83 -6.34,-14.16 -14.17,-14.16"
         style="fill:#fef0d6;fill-opacity:1;fill-rule:nonzero;stroke:none"
         id="path424" />
      <path
         d="m 2781.49,1135.58 c -7.82,0 -14.17,6.35 -14.17,14.17 0,7.83 6.35,14.17 14.17,14.17 7.83,0 14.17,-6.34 14.17,-14.17 0,-7.82 -6.34,-14.17 -14.17,-14.17"
         style="fill:#e4308e;fill-opacity:1;fill-rule:nonzero;stroke:none"
         id="path426" />
      <path
         d="m 2781.49,1060.96 c -7.82,0 -14.17,6.35 -14.17,14.16 0,7.84 6.35,14.18 14.17,14.18 7.83,0 14.17,-6.34 14.17,-14.18 0,-7.81 -6.34,-14.16 -14.17,-14.16"
         style="fill:#4fbccd;fill-opacity:1;fill-rule:nonzero;stroke:none"
         id="path428" />
      <path
         d="m 2781.49,986.352 c -7.82,0 -14.17,6.339 -14.17,14.168 0,7.82 6.35,14.17 14.17,14.17 7.83,0 14.17,-6.35 14.17,-14.17 0,-7.829 -6.34,-14.168 -14.17,-14.168"
         style="fill:#fef0d6;fill-opacity:1;fill-rule:nonzero;stroke:none"
         id="path430" />
      <path
         d="m 2778.05,912.148 c -6.16,1.532 -10.73,7.114 -10.73,13.75 0,7.821 6.35,14.161 14.17,14.161 4.34,0 8.23,-1.95 10.83,-5.02 -4.38,-8.078 -9.14,-15.711 -14.27,-22.891"
         style="fill:#e4308e;fill-opacity:1;fill-rule:nonzero;stroke:none"
         id="path432" />
      <path
         d="m 2648.87,941.02 c -4.95,0 -9.3,2.539 -11.83,6.39 7.71,5.262 15.09,11.129 22.06,17.578 2.44,-2.547 3.94,-6.008 3.94,-9.808 0,-7.821 -6.35,-14.16 -14.17,-14.16"
         style="fill:#4fbccd;fill-opacity:1;fill-rule:nonzero;stroke:none"
         id="path434" />
      <path
         d="m 2648.87,866.391 c -7.82,0 -14.15,6.347 -14.15,14.179 0,7.828 6.33,14.16 14.15,14.16 7.82,0 14.17,-6.332 14.17,-14.16 0,-7.832 -6.35,-14.179 -14.17,-14.179"
         style="fill:#fef0d6;fill-opacity:1;fill-rule:nonzero;stroke:none"
         id="path436" />
      <path
         d="m 2832.4,922.27 c -0.14,0.031 -0.31,0.058 -0.46,0.089 16.59,35.731 26.03,79.251 26.03,130.051 0,55.85 -13.87,114.05 -35.99,166.15 h 0.06 c 22.23,-52.23 36.2,-110.62 36.2,-166.65 0,-50.61 -9.37,-93.98 -25.84,-129.64"
         style="fill:#87a92e;fill-opacity:1;fill-rule:nonzero;stroke:none"
         id="path438" />
      <path
         d="m 2821.98,1218.56 c -4.99,11.77 -10.4,23.23 -16.18,34.28 5.79,-11.05 11.22,-22.5 16.24,-34.28 h -0.06"
         style="fill:#87a92e;fill-opacity:1;fill-rule:nonzero;stroke:none"
         id="path440" />
      <path
         d="m 2648.85,804.121 c -53.52,0 -102.36,18.789 -139.37,54.848 0.03,-0.02 0.07,-0.039 0.1,-0.059 36.95,-35.75 85.59,-54.379 138.88,-54.379 47.46,0 91.23,14.77 126.34,43.25 5.49,4.438 10.77,9.231 15.82,14.328 v 0 c 6.62,6.711 12.84,13.969 18.63,21.801 v 0 c 4.49,6.07 8.71,12.481 12.65,19.211 v 0 c 3.59,6.141 6.94,12.547 10.04,19.238 0.15,-0.031 0.32,-0.058 0.46,-0.089 -35.62,-77.141 -104.47,-118.149 -183.55,-118.149"
         style="fill:#69932b;fill-opacity:1;fill-rule:nonzero;stroke:none"
         id="path442" />
      <path
         d="m 2790.62,862.109 c -0.01,0.012 -0.01,0.012 -0.02,0.02 6.64,6.723 12.86,14 18.65,21.859 v -0.078 c -5.79,-7.832 -12.01,-15.09 -18.63,-21.801 m 31.28,41.012 v 0.129 c 22.68,38.91 35.93,88.871 35.93,149.06 0,55.81 -13.85,113.96 -35.93,166.03 v 0.42 c -3.96,9.33 -8.19,18.46 -12.65,27.34 v -0.37 c -7.02,14.01 -14.62,27.42 -22.66,40.04 0.04,0.01 0.08,0.03 0.11,0.04 6.71,-10.48 13.1,-21.5 19.1,-32.97 5.78,-11.05 11.19,-22.51 16.18,-34.28 22.12,-52.1 35.99,-110.3 35.99,-166.15 0,-50.8 -9.44,-94.32 -26.03,-130.051 -3.1,-6.691 -6.45,-13.097 -10.04,-19.238 m -50.93,405.359 c -5.16,6.96 -10.46,13.59 -15.86,19.85 v 0.07 c 5.42,-6.25 10.74,-12.89 15.92,-19.85 -0.02,-0.02 -0.04,-0.04 -0.06,-0.07 m -28.51,33.61 c -1.21,1.23 -2.43,2.45 -3.65,3.64 1.22,-1.18 2.44,-2.4 3.65,-3.63 v -0.01"
         style="fill:#de8d19;fill-opacity:1;fill-rule:nonzero;stroke:none"
         id="path444" />
      <path
         d="m 2755.11,1328.33 c -4.16,4.81 -8.38,9.41 -12.65,13.76 v 0.01 c 4.27,-4.33 8.49,-8.9 12.65,-13.7 v -0.07"
         style="fill:#489ca3;fill-opacity:1;fill-rule:nonzero;stroke:none"
         id="path446" />
      <path
         d="m 2809.25,883.91 v 0 0.078 c 4.49,6.082 8.71,12.512 12.65,19.262 v -0.129 c -3.94,-6.73 -8.16,-13.141 -12.65,-19.211 m 12.65,334.43 c -3.97,9.35 -8.19,18.48 -12.65,27.39 v 0.37 c 4.46,-8.88 8.69,-18.01 12.65,-27.34 v -0.42"
         style="fill:#e2c5a4;fill-opacity:1;fill-rule:nonzero;stroke:none"
         id="path448" />
      <path
         d="m 2786.59,1285.77 c -5.04,7.9 -10.26,15.48 -15.62,22.71 0.02,0.03 0.04,0.05 0.06,0.07 5.38,-7.24 10.62,-14.83 15.67,-22.74 -0.03,-0.01 -0.07,-0.03 -0.11,-0.04"
         style="fill:#489ca3;fill-opacity:1;fill-rule:nonzero;stroke:none"
         id="path450" />
      <path
         d="m 2774.8,847.781 c 5.49,4.449 10.76,9.231 15.8,14.348 0.01,-0.008 0.01,-0.008 0.02,-0.02 v 0 c -5.05,-5.097 -10.33,-9.89 -15.82,-14.328"
         style="fill:#e2c5a4;fill-opacity:1;fill-rule:nonzero;stroke:none"
         id="path452" />
      <path
         d="m 2648.46,804.531 c -53.29,0 -101.93,18.629 -138.88,54.379 0.19,-0.121 0.39,-0.238 0.59,-0.351 6.1,-5.868 12.51,-11.258 19.21,-16.18 v 0 c 4.12,-3.039 8.36,-5.891 12.69,-8.57 v 0 c 4.13,-2.539 8.35,-4.93 12.65,-7.149 v 0 c 16.87,-8.691 35.04,-14.859 54.14,-18.41 v 0 c 4.17,-0.781 8.4,-1.43 12.66,-1.961 v 0 c 4.37,-0.539 8.77,-0.949 13.22,-1.219 v 0 c 4.58,-0.289 9.2,-0.429 13.85,-0.429 4.85,0 9.66,0.16 14.43,0.461 v 0 c 4.25,0.277 8.46,0.668 12.64,1.187 v 0 c 4.26,0.52 8.48,1.18 12.65,1.949 v 0 c 19.1,3.563 37.28,9.731 54.15,18.43 v 0 c 4.31,2.223 8.52,4.602 12.65,7.152 v 0 c 4.95,3.051 9.75,6.328 14.43,9.852 v 0 c 1.77,1.336 3.53,2.707 5.26,4.109 -35.11,-28.48 -78.88,-43.25 -126.34,-43.25"
         style="fill:#698e2a;fill-opacity:1;fill-rule:nonzero;stroke:none"
         id="path454" />
      <path
         d="m 2634.74,805.07 c -4.45,0.27 -8.85,0.68 -13.22,1.219 v 23.941 c 18.77,0.5 36.92,3.34 54.14,8.45 v -32.391 c -4.18,-0.519 -8.39,-0.91 -12.64,-1.187 0.01,0.277 0.02,0.566 0.02,0.847 0,7.821 -6.35,14.16 -14.17,14.16 -7.82,0 -14.15,-6.339 -14.15,-14.16 0,-0.301 0.01,-0.59 0.02,-0.879 m 53.57,3.168 v 34.672 c 19.6,7.301 37.82,17.692 54.15,31.059 v -47.301 c -16.87,-8.699 -35.05,-14.867 -54.15,-18.43 m -79.45,0.012 c -19.1,3.551 -37.27,9.719 -54.14,18.41 v 12.16 c 17.21,-5.148 35.37,-8.039 54.14,-8.582 V 808.25 m -66.79,25.559 c -4.33,2.679 -8.57,5.531 -12.69,8.57 1.14,1.41 2.02,3.051 2.55,4.84 3.33,-1.469 6.72,-2.86 10.14,-4.141 v -9.269 m 213.04,0.011 v 51.481 c 8.27,8.097 15.94,17.039 22.94,26.847 1.1,-0.277 2.25,-0.418 3.44,-0.418 7.83,0 14.17,6.34 14.17,14.168 0,3.481 -1.25,6.672 -3.34,9.141 6.56,12.121 12.24,25.262 16.93,39.359 v -90.41 c -5.79,-7.859 -12.01,-15.136 -18.65,-21.859 -2.46,2.07 -5.64,3.32 -9.11,3.32 -7.82,0 -14.17,-6.359 -14.17,-14.168 0,-2.801 0.81,-5.41 2.22,-7.609 -4.68,-3.524 -9.48,-6.801 -14.43,-9.852 m 66.79,69.43 v 127.74 c 1.89,14.87 2.88,30.52 2.88,46.93 0,14.96 -1,30.09 -2.88,45.22 v 95.2 c 22.08,-52.07 35.93,-110.22 35.93,-166.03 0,-60.189 -13.25,-110.15 -35.93,-149.06 m -12.65,282.41 c -4.1,14.72 -8.93,29.24 -14.37,43.37 -0.11,0.3 -0.22,0.6 -0.34,0.89 -10.95,28.25 -24.37,54.99 -39.43,78.96 v 19.45 c 5.4,-6.26 10.7,-12.89 15.86,-19.85 -2.27,-2.51 -3.65,-5.83 -3.65,-9.49 0,-7.83 6.35,-14.17 14.17,-14.17 1.8,0 3.52,0.34 5.1,0.95 8.04,-12.62 15.64,-26.03 22.66,-40.04 v -60.07 m -66.79,142.17 c -5.02,7.08 -10.18,13.84 -15.46,20.25 -3.07,5.48 -6.23,10.86 -9.48,16.1 7.19,-5.44 14.3,-11.62 21.29,-18.45 1.22,-1.19 2.44,-2.41 3.65,-3.64 v -14.26"
         style="fill:#dd8718;fill-opacity:1;fill-rule:nonzero;stroke:none"
         id="path456" />
      <path
         d="m 2554.72,826.66 c -4.3,2.219 -8.52,4.61 -12.65,7.149 v 0 9.269 c 4.16,-1.558 8.37,-2.976 12.65,-4.258 v -12.16"
         style="fill:#499590;fill-opacity:1;fill-rule:nonzero;stroke:none"
         id="path458" />
      <path
         d="m 2621.52,806.289 c -4.26,0.531 -8.49,1.18 -12.66,1.961 v 0 21.988 c 2.17,-0.058 4.35,-0.097 6.54,-0.097 2.05,0 4.09,0.031 6.12,0.089 v -23.941"
         style="fill:#e1ba8b;fill-opacity:1;fill-rule:nonzero;stroke:none"
         id="path460" />
      <path
         d="m 2675.66,806.289 v 0 32.391 c 4.28,1.269 8.49,2.679 12.65,4.23 v -34.672 c -4.17,-0.769 -8.39,-1.429 -12.65,-1.949"
         style="fill:#cc2a65;fill-opacity:1;fill-rule:nonzero;stroke:none"
         id="path462" />
      <path
         d="m 2742.46,826.668 v 0 47.301 c 4.35,3.562 8.58,7.351 12.65,11.332 V 833.82 c -4.13,-2.55 -8.34,-4.929 -12.65,-7.152 m 12.65,482.212 c -4.1,6.53 -8.32,12.86 -12.65,18.95 v 14.26 c 4.27,-4.35 8.49,-8.95 12.65,-13.76 v -19.45"
         style="fill:#499590;fill-opacity:1;fill-rule:nonzero;stroke:none"
         id="path464" />
      <path
         d="m 2809.25,883.988 v 90.41 c 5.78,17.391 10.06,36.262 12.65,56.592 V 903.25 c -3.94,-6.75 -8.16,-13.18 -12.65,-19.262 m 12.65,239.152 c -2.61,20.97 -6.92,41.96 -12.65,62.52 v 60.07 c 4.46,-8.91 8.68,-18.04 12.65,-27.39 v -95.2"
         style="fill:#e1ba8b;fill-opacity:1;fill-rule:nonzero;stroke:none"
         id="path466" />
      <path
         d="m 2529.38,842.379 c -6.7,4.922 -13.11,10.312 -19.21,16.18 7,-4.25 14.27,-8.028 21.76,-11.34 -0.53,-1.789 -1.41,-3.43 -2.55,-4.84 v 0"
         style="fill:#e1ba8b;fill-opacity:1;fill-rule:nonzero;stroke:none"
         id="path468" />
      <path
         d="m 2794.88,1229.03 c -0.11,0.3 -0.23,0.59 -0.34,0.89 0.12,-0.29 0.23,-0.59 0.34,-0.89"
         style="fill:#e1ba8b;fill-opacity:1;fill-rule:nonzero;stroke:none"
         id="path470" />
      <path
         d="m 2781.49,1284.82 c -7.82,0 -14.17,6.34 -14.17,14.17 0,3.66 1.38,6.98 3.65,9.49 5.36,-7.23 10.58,-14.81 15.62,-22.71 -1.58,-0.61 -3.3,-0.95 -5.1,-0.95"
         style="fill:#499590;fill-opacity:1;fill-rule:nonzero;stroke:none"
         id="path472" />
      <path
         d="m 2769.54,843.672 v 0 c -1.41,2.199 -2.22,4.808 -2.22,7.609 0,7.809 6.35,14.168 14.17,14.168 3.47,0 6.65,-1.25 9.11,-3.32 -5.04,-5.117 -10.31,-9.899 -15.8,-14.348 -1.73,-1.402 -3.49,-2.773 -5.26,-4.109"
         style="fill:#e1ba8b;fill-opacity:1;fill-rule:nonzero;stroke:none"
         id="path474" />
      <path
         d="m 2781.49,911.73 c -1.19,0 -2.34,0.141 -3.44,0.418 5.13,7.18 9.89,14.813 14.27,22.891 2.09,-2.469 3.34,-5.66 3.34,-9.141 0,-7.828 -6.34,-14.168 -14.17,-14.168"
         style="fill:#cc2a65;fill-opacity:1;fill-rule:nonzero;stroke:none"
         id="path476" />
      <path
         d="m 2648.59,804.641 c -4.65,0 -9.27,0.14 -13.85,0.429 v 0 c -0.01,0.289 -0.02,0.578 -0.02,0.879 0,7.821 6.33,14.16 14.15,14.16 7.82,0 14.17,-6.339 14.17,-14.16 0,-0.281 -0.01,-0.57 -0.02,-0.847 v 0 c -4.77,-0.301 -9.58,-0.461 -14.43,-0.461"
         style="fill:#cc2a65;fill-opacity:1;fill-rule:nonzero;stroke:none"
         id="path478" />
      <path
         d="m 2487.92,1128.86 v 24.33 c 0.34,1.71 0.7,3.43 1.08,5.13 3.41,15.41 8.15,30.57 13.78,45.42 1.48,3.9 3.02,7.78 4.62,11.64 2.6,-3.16 6.54,-5.17 10.95,-5.17 7.84,0 14.17,6.33 14.17,14.16 0,7.83 -6.33,14.17 -14.17,14.17 -0.19,0 -0.38,-0.01 -0.58,-0.01 1.43,2.95 2.88,5.89 4.36,8.83 3.6,7.11 7.38,14.17 11.36,21.13 1.96,3.48 4.01,6.96 6.09,10.4 l 2.49,4.04 v -55.11 c -8.01,-10.41 -15.6,-21.18 -22.64,-32.32 -8.07,-12.82 -15.43,-26.14 -21.6,-40.06 -3.81,-8.61 -7.19,-17.47 -9.91,-26.58 m 66.8,114.67 v 53.09 c 2.33,0.99 4.84,1.5 7.37,1.5 3.64,0 7.31,-1.06 10.54,-3.26 8.53,-5.82 10.73,-17.47 4.89,-26 -0.72,-1.07 -1.61,-2.12 -2.51,-2.98 -1.12,-1.08 -2.45,-2.46 -3.7,-3.76 l -3.78,-4.04 c -2.51,-2.73 -5.01,-5.5 -7.47,-8.33 -1.79,-2.05 -3.58,-4.13 -5.34,-6.22"
         style="fill:#fddd9c;fill-opacity:1;fill-rule:nonzero;stroke:none"
         id="path480" />
      <path
         d="m 2483.69,1111.72 c -0.13,13.8 1.48,27.73 4.23,41.47 v -24.33 c -1.68,-5.62 -3.11,-11.33 -4.23,-17.14"
         style="fill:#f3aad9;fill-opacity:1;fill-rule:nonzero;stroke:none"
         id="path482" />
      <path
         d="m 2542.07,1227.82 v 55.11 l 0.71,1.16 c 1.12,1.76 2.17,3.41 3.47,5.33 l 0.36,0.54 c 2.09,3.06 4.94,5.31 8.11,6.66 v -53.09 c -3.07,-3.65 -6.09,-7.36 -9.07,-11.11 -1.2,-1.52 -2.39,-3.06 -3.58,-4.6"
         style="fill:#b8e8f6;fill-opacity:1;fill-rule:nonzero;stroke:none"
         id="path484" />
      <path
         d="m 2518.35,1210.21 c -4.41,0 -8.35,2.01 -10.95,5.17 3.23,7.8 6.7,15.52 10.37,23.15 0.2,0 0.39,0.01 0.58,0.01 7.84,0 14.17,-6.34 14.17,-14.17 0,-7.83 -6.33,-14.16 -14.17,-14.16"
         style="fill:#ffffff;fill-opacity:1;fill-rule:nonzero;stroke:none"
         id="path486" />
      <path
         d="m 2594.18,1298.63 c -4.45,0 -8.72,1.57 -11.93,4.76 -6.98,6.97 -6.27,19.01 1.58,26.89 4.25,4.25 9.71,6.43 14.94,6.43 3.64,0 7.17,-1.06 10.09,-3.19 v -28.72 c -4.21,-4.09 -9.56,-6.17 -14.68,-6.17"
         style="fill:#fddd9c;fill-opacity:1;fill-rule:nonzero;stroke:none"
         id="path488" />
      <path
         d="m 2608.86,1304.8 v 28.72 c 0.65,-0.48 1.26,-1.01 1.85,-1.59 6.99,-6.96 6.26,-19 -1.59,-26.87 -0.09,-0.09 -0.17,-0.17 -0.26,-0.26"
         style="fill:#ffffff;fill-opacity:1;fill-rule:nonzero;stroke:none"
         id="path490" />
      <path
         d="m 2462.63,1010.73 c 0,-154.832 -90.66,-239.609 -202.48,-239.609 -111.83,0 -202.49,84.777 -202.49,239.609 0,154.84 104.23,328.3 202.49,328.3 92.26,0 202.48,-173.46 202.48,-328.3"
         style="fill:#4dc5ea;fill-opacity:1;fill-rule:nonzero;stroke:none"
         id="path492" />
      <path
         d="m 2126.04,823.488 c -0.13,0.082 -0.26,0.153 -0.38,0.231 -16.99,16.441 -31.42,36.633 -42.57,60.402 0.05,-0.019 0.1,-0.031 0.15,-0.051 11.2,-23.859 25.72,-44.109 42.8,-60.582"
         style="fill:#51a539;fill-opacity:1;fill-rule:nonzero;stroke:none"
         id="path494" />
      <path
         d="m 2228.02,795.879 c -37.19,0 -72.03,9.391 -101.98,27.609 -17.08,16.473 -31.6,36.723 -42.8,60.582 17.71,-4.98 36.4,-7.531 55.75,-7.531 111.82,0 202.47,84.801 202.47,239.631 0,77.04 -27.29,158.67 -66.06,221.27 23.66,-4.67 48,-19.69 71,-41.99 -6.45,6.22 -12.99,11.87 -19.6,16.88 3.13,-5.06 6.17,-10.27 9.15,-15.56 53.23,-64.68 94.56,-166.46 94.56,-261.26 0,-154.85 -90.66,-239.631 -202.49,-239.631"
         style="fill:#35b3db;fill-opacity:1;fill-rule:nonzero;stroke:none"
         id="path496" />
      <path
         d="m 2260.37,770.719 c -51.77,0 -98.97,18.172 -134.78,53.039 0.02,-0.008 0.05,-0.02 0.07,-0.039 35.74,-34.59 82.78,-52.598 134.33,-52.598 0.03,0 0.05,0 0.08,0 0.03,0 0.05,0 0.08,0 76.02,0 142.25,39.18 176.88,112.91 0.15,0.028 0.29,0.047 0.44,0.078 -34.56,-74.039 -100.92,-113.39 -177.1,-113.39"
         style="fill:#29772f;fill-opacity:1;fill-rule:nonzero;stroke:none"
         id="path498" />
      <path
         d="m 2437.03,884.031 c 0.01,0.039 0.03,0.071 0.04,0.098 0.15,0.031 0.3,0.051 0.45,0.07 -0.02,-0.031 -0.03,-0.058 -0.05,-0.09 -0.15,-0.031 -0.29,-0.05 -0.44,-0.078 m 8.95,21.84 c 4.25,11.981 7.74,24.707 10.42,38.188 0.06,-0.18 0.13,-0.36 0.19,-0.547 -2.63,-13.242 -6.06,-25.762 -10.21,-37.551 -0.13,-0.031 -0.27,-0.063 -0.4,-0.09"
         style="fill:#5d779e;fill-opacity:1;fill-rule:nonzero;stroke:none"
         id="path500" />
      <path
         d="m 2437.07,884.129 c 3.26,6.941 6.23,14.191 8.91,21.742 0.13,0.027 0.27,0.059 0.4,0.09 -2.66,-7.563 -5.62,-14.813 -8.86,-21.762 -0.15,-0.019 -0.3,-0.039 -0.45,-0.07"
         style="fill:#58638c;fill-opacity:1;fill-rule:nonzero;stroke:none"
         id="path502" />
      <path
         d="m 2445.56,1122.08 c -10.13,34.19 -24.25,67.02 -40.93,96.34 16.67,-29.24 30.81,-61.99 40.97,-96.11 -0.01,-0.08 -0.03,-0.15 -0.04,-0.23"
         style="fill:#5d749c;fill-opacity:1;fill-rule:nonzero;stroke:none"
         id="path504" />
      <path
         d="m 2456.59,943.512 c -0.06,0.187 -0.13,0.367 -0.19,0.547 4.06,20.519 6.23,42.761 6.23,66.671 0,36.93 -6.27,74.91 -17.07,111.35 0.01,0.08 0.03,0.15 0.04,0.23 10.91,-36.63 17.26,-74.84 17.26,-111.97 0,-23.981 -2.18,-46.27 -6.27,-66.828"
         style="fill:#5e6d28;fill-opacity:1;fill-rule:nonzero;stroke:none"
         id="path506" />
      <path
         d="m 2260.15,771.121 c -0.03,0 -0.05,0 -0.08,0 111.79,0.039 202.41,84.809 202.41,239.609 0,107.26 -52.91,223.45 -116.08,284.72 21.07,-20.35 41.01,-46.82 58.23,-77.03 16.68,-29.32 30.8,-62.15 40.93,-96.34 10.8,-36.44 17.07,-74.42 17.07,-111.35 0,-23.91 -2.17,-46.152 -6.23,-66.671 -2.68,-13.481 -6.17,-26.207 -10.42,-38.188 -2.68,-7.551 -5.65,-14.801 -8.91,-21.742 -0.01,-0.027 -0.03,-0.059 -0.04,-0.098 -34.63,-73.73 -100.86,-112.91 -176.88,-112.91"
         style="fill:#1b82a7;fill-opacity:1;fill-rule:nonzero;stroke:none"
         id="path508" />
      <path
         d="m 2259.99,771.121 c -51.55,0 -98.59,18.008 -134.33,52.598 0.12,-0.078 0.25,-0.149 0.38,-0.231 35.7,-34.418 82.62,-52.359 134.03,-52.367 -0.03,0 -0.05,0 -0.08,0"
         style="fill:#1c6d2f;fill-opacity:1;fill-rule:nonzero;stroke:none"
         id="path510" />
      <path
         d="m 2260.07,771.121 c -51.41,0.008 -98.33,17.949 -134.03,52.367 29.95,-18.218 64.79,-27.609 101.98,-27.609 111.83,0 202.49,84.781 202.49,239.631 0,94.8 -41.33,196.58 -94.56,261.26 -2.98,5.29 -6.02,10.5 -9.15,15.56 6.61,-5.01 13.15,-10.66 19.6,-16.88 63.17,-61.27 116.08,-177.46 116.08,-284.72 0,-154.8 -90.62,-239.57 -202.41,-239.609"
         style="fill:#13789d;fill-opacity:1;fill-rule:nonzero;stroke:none"
         id="path512" />
      <path
         d="m 2100.64,1068.19 c -0.13,15.01 1.86,30.18 5.13,45.07 3.31,14.9 7.91,29.56 13.35,43.92 5.45,14.36 11.74,28.41 18.7,42.17 3.49,6.9 7.14,13.7 10.97,20.44 1.92,3.38 3.89,6.73 5.91,10.08 l 3.1,5.02 c 1.08,1.68 2.08,3.29 3.35,5.14 l 0.36,0.53 c 3.5,5.13 9.18,7.9 14.96,7.9 3.51,0 7.07,-1.02 10.19,-3.16 8.25,-5.64 10.37,-16.9 4.74,-25.16 -0.7,-1.03 -1.57,-2.03 -2.43,-2.87 -1.09,-1.04 -2.37,-2.38 -3.59,-3.63 l -3.66,-3.91 c -2.42,-2.64 -4.84,-5.32 -7.22,-8.06 -4.76,-5.45 -9.4,-11.05 -13.93,-16.77 -9.02,-11.42 -17.55,-23.32 -25.36,-35.7 -7.8,-12.38 -14.91,-25.27 -20.89,-38.73 -5.96,-13.47 -10.83,-27.55 -13.68,-42.28"
         style="fill:#b8e8f6;fill-opacity:1;fill-rule:nonzero;stroke:none"
         id="path514" />
      <path
         d="m 2207.51,1248.94 c -4.31,0 -8.45,1.52 -11.55,4.61 -6.75,6.74 -6.06,18.38 1.54,26 4.11,4.11 9.39,6.21 14.44,6.21 4.3,0 8.44,-1.52 11.55,-4.61 6.74,-6.73 6.05,-18.36 -1.55,-26 -4.09,-4.12 -9.38,-6.22 -14.43,-6.21"
         style="fill:#b8e8f6;fill-opacity:1;fill-rule:nonzero;stroke:none"
         id="path516" />
      <path
         d="m 2083.94,1005.08 c 0,-154.842 -90.65,-239.611 -202.48,-239.611 -111.83,0 -202.48,84.769 -202.48,239.611 0,154.84 104.23,328.3 202.48,328.3 92.25,0 202.48,-173.46 202.48,-328.3"
         style="fill:#fab220;fill-opacity:1;fill-rule:nonzero;stroke:none"
         id="path518" />
      <path
         d="m 1747.35,817.852 c -0.13,0.066 -0.25,0.148 -0.38,0.226 -16.98,16.434 -31.42,36.621 -42.57,60.391 0.06,-0.02 0.11,-0.028 0.16,-0.051 11.2,-23.859 25.71,-44.098 42.79,-60.566"
         style="fill:#75ab31;fill-opacity:1;fill-rule:nonzero;stroke:none"
         id="path520" />
      <path
         d="m 1849.33,790.23 c -37.18,0 -72.02,9.391 -101.98,27.622 -17.08,16.468 -31.59,36.707 -42.79,60.566 17.71,-4.988 36.4,-7.52 55.74,-7.52 111.82,0 202.47,84.793 202.47,239.622 0,77.05 -27.28,158.68 -66.07,221.27 23.97,-4.73 48.64,-20.08 71.89,-42.85 -6.72,6.56 -13.57,12.5 -20.48,17.74 3.12,-5.06 6.17,-10.26 9.16,-15.56 53.22,-64.68 94.55,-166.45 94.55,-261.26 0,-154.852 -90.65,-239.63 -202.49,-239.63"
         style="fill:#f8a41c;fill-opacity:1;fill-rule:nonzero;stroke:none"
         id="path522" />
      <path
         d="m 1881.68,765.078 c -51.75,0 -98.98,18.16 -134.78,53.043 0.03,-0.019 0.05,-0.031 0.07,-0.043 35.74,-34.598 82.78,-52.609 134.33,-52.609 0.03,0 0.05,0 0.08,0 0.03,0 0.05,0 0.08,0 87.38,0 161.83,51.75 190.21,148.25 0.06,-0.18 0.11,-0.36 0.17,-0.539 -28.41,-96.399 -102.83,-148.102 -190.16,-148.102"
         style="fill:#6c7727;fill-opacity:1;fill-rule:nonzero;stroke:none"
         id="path524" />
      <path
         d="m 2069.76,1106.26 c -4.64,17.12 -10.3,33.96 -16.8,50.24 0.02,0 0.05,0 0.07,0 6.49,-16.21 12.14,-32.97 16.78,-50.01 -0.01,-0.07 -0.03,-0.15 -0.05,-0.23"
         style="fill:#dd845d;fill-opacity:1;fill-rule:nonzero;stroke:none"
         id="path526" />
      <path
         d="m 2053.03,1156.5 c -0.02,0 -0.05,0 -0.07,0 v 0 c 0.02,0 0.05,0 0.07,0 0,-0.01 0,0.01 0,0"
         style="fill:#d83f52;fill-opacity:1;fill-rule:nonzero;stroke:none"
         id="path528" />
      <path
         d="m 2053.03,1156.5 c -0.02,0 -0.05,0 -0.07,0 -8.19,20.51 -17.71,40.14 -28.23,58.39 10.53,-18.23 20.09,-37.89 28.3,-58.39"
         style="fill:#c82e4a;fill-opacity:1;fill-rule:nonzero;stroke:none"
         id="path530" />
      <path
         d="m 2071.84,913.18 c -0.06,0.179 -0.11,0.359 -0.17,0.539 7.94,27 12.27,57.511 12.27,91.361 0,33.5 -5.16,67.88 -14.18,101.18 0.02,0.08 0.04,0.16 0.05,0.23 9.13,-33.49 14.36,-68.08 14.36,-101.79 0,-33.919 -4.36,-64.481 -12.33,-91.52"
         style="fill:#4e7e6e;fill-opacity:1;fill-rule:nonzero;stroke:none"
         id="path532" />
      <path
         d="m 1881.46,765.469 c -0.03,0 -0.05,0 -0.08,0 111.79,0.043 202.41,84.812 202.41,239.611 0,106.77 -52.41,222.37 -115.2,283.86 20.26,-19.76 39.44,-45.14 56.14,-74.05 10.52,-18.25 20.04,-37.88 28.23,-58.39 v 0 c 6.5,-16.28 12.16,-33.12 16.8,-50.24 9.02,-33.3 14.18,-67.68 14.18,-101.18 0,-33.85 -4.33,-64.361 -12.27,-91.361 -28.38,-96.5 -102.83,-148.25 -190.21,-148.25"
         style="fill:#db7018;fill-opacity:1;fill-rule:nonzero;stroke:none"
         id="path534" />
      <path
         d="m 1881.3,765.469 c -51.55,0 -98.59,18.011 -134.33,52.609 0.13,-0.078 0.25,-0.16 0.38,-0.226 35.69,-34.422 82.63,-52.364 134.03,-52.383 -0.03,0 -0.05,0 -0.08,0"
         style="fill:#6d6f25;fill-opacity:1;fill-rule:nonzero;stroke:none"
         id="path536" />
      <path
         d="m 1881.38,765.469 c -51.4,0.019 -98.34,17.961 -134.03,52.383 29.96,-18.231 64.8,-27.622 101.98,-27.622 111.84,0 202.49,84.778 202.49,239.63 0,94.81 -41.33,196.58 -94.55,261.26 -2.99,5.3 -6.04,10.5 -9.16,15.56 6.91,-5.24 13.76,-11.18 20.48,-17.74 62.79,-61.49 115.2,-177.09 115.2,-283.86 0,-154.799 -90.62,-239.568 -202.41,-239.611"
         style="fill:#db6918;fill-opacity:1;fill-rule:nonzero;stroke:none"
         id="path538" />
      <path
         d="m 1721.95,1062.55 c -0.13,15 1.86,30.16 5.15,45.06 3.29,14.9 7.88,29.56 13.32,43.92 5.46,14.36 11.75,28.41 18.72,42.17 3.48,6.89 7.14,13.71 10.97,20.44 1.93,3.38 3.88,6.73 5.91,10.08 l 3.1,5.02 c 1.07,1.7 2.08,3.3 3.34,5.14 l 0.36,0.53 c 3.5,5.14 9.18,7.9 14.96,7.9 3.52,0 7.08,-1.03 10.2,-3.16 8.25,-5.63 10.37,-16.9 4.74,-25.16 -0.71,-1.03 -1.58,-2.03 -2.44,-2.87 -1.09,-1.04 -2.37,-2.38 -3.59,-3.63 l -3.64,-3.91 c -2.43,-2.63 -4.85,-5.32 -7.23,-8.05 -4.77,-5.46 -9.4,-11.06 -13.93,-16.77 -9.03,-11.44 -17.54,-23.33 -25.37,-35.71 -7.79,-12.38 -14.9,-25.26 -20.88,-38.73 -5.96,-13.47 -10.83,-27.54 -13.69,-42.27"
         style="fill:#fddd9c;fill-opacity:1;fill-rule:nonzero;stroke:none"
         id="path540" />
      <path
         d="m 1828.82,1243.29 c -4.3,0 -8.44,1.52 -11.54,4.61 -6.75,6.75 -6.07,18.38 1.53,26 4.11,4.12 9.39,6.22 14.44,6.22 4.3,0 8.44,-1.52 11.54,-4.61 6.77,-6.74 6.07,-18.38 -1.53,-26 -4.1,-4.12 -9.39,-6.22 -14.44,-6.22"
         style="fill:#fddd9c;fill-opacity:1;fill-rule:nonzero;stroke:none"
         id="path542" />
    </g>
  </g>
</svg>
